<svg width="1440" height="416" viewBox="0 0 1440 416" fill="none" xmlns="http://www.w3.org/2000/svg">
<rect width="1440" height="416" fill="#D3FFD5"/>
<mask id="mask0_54_41912" style="mask-type:alpha" maskUnits="userSpaceOnUse" x="0" y="0" width="1440" height="416">
<rect width="1440" height="416" fill="#D3FFD5"/>
</mask>
<g mask="url(#mask0_54_41912)">
<g style="mix-blend-mode:luminosity" opacity="0.2">
<path d="M515.215 709.55L525.413 718.206L536.54 725.918L548.584 732.667L561.525 738.434L575.353 743.184L590.032 746.921L605.544 749.626L621.855 751.302L638.94 751.928L656.762 751.51L675.293 750.028L694.512 747.485L714.371 743.871L734.84 739.194L755.874 733.461L777.433 726.689L799.467 718.882L821.939 710.053L844.799 700.216L868.011 689.38L891.515 677.563L915.277 664.791L939.237 651.082L963.348 636.479L987.554 621.005L1011.81 604.691L1036.06 587.571L1060.25 569.673L1084.33 551.026L1108.25 531.677L1131.96 511.672L1155.41 491.053L1178.55 469.863L1201.32 448.15L1223.68 425.958L1245.57 403.333L1266.95 380.32L1287.77 356.973L1307.99 333.346L1327.58 309.481L1346.49 285.44L1364.67 261.272L1382.09 237.027L1398.72 212.76L1414.5 188.519L1429.41 164.359L1443.44 140.329L1456.56 116.475L1468.73 92.856L1479.94 69.5128L1490.17 46.5L1499.39 23.8669L1507.57 1.65171L1514.72 -20.0951L1520.84 -41.3316L1525.9 -62.0236L1529.91 -82.1283L1532.87 -101.604L1534.76 -120.415L1535.59 -138.529L1535.36 -155.898L1534.07 -172.504L1531.74 -188.323L1528.38 -203.313L1524.01 -217.475L1518.63 -230.762L1512.27 -243.162L1504.93 -254.653L1496.63 -265.208L1487.41 -274.819L1483.02 -279.304L1478.53 -283.686L1473.94 -287.957L1469.24 -292.119L1459.14 -300.741L1454.36 -304.781L1449.48 -308.706L1444.52 -312.516L1439.45 -316.207L1428.56 -323.8L1423.43 -327.353L1418.23 -330.779L1412.93 -334.082L1407.57 -337.255L1395.95 -343.813L1390.55 -346.84L1385.07 -349.733L1379.52 -352.495L1373.91 -355.123L1361.66 -360.637L1356.03 -363.104L1350.34 -365.437L1344.6 -367.631L1338.81 -369.688L1326 -374.154L1320.22 -376.041L1314.4 -377.791L1308.53 -379.399L1295.18 -382.856L1289.35 -384.299L1283.49 -385.595L1277.59 -386.743L1263.77 -389.205L1257.94 -390.192L1252.07 -391.036L1246.2 -391.726L1231.98 -393.234L1226.18 -393.764L1220.37 -394.151L1200.02 -394.972L1194.3 -395.053L1188.58 -394.984L1173.68 -394.692L1168.09 -394.477L1162.5 -394.113L1147.3 -392.973L1141.85 -392.47L1136.41 -391.818L1120.96 -389.862L1115.68 -389.083L1099.9 -386.32L1094.78 -385.415L1089.68 -384.363L1073.74 -380.849L1068.83 -379.683L1052.64 -375.412L1047.91 -374.142L1043.24 -372.727L1026.98 -367.777L1022.51 -366.273L1006.09 -360.633L1001.83 -359.04L985.271 -352.745L981.242 -351.079L964.583 -344.15L947.694 -336.538L944.08 -334.888L927.159 -326.693L923.791 -325.005L906.882 -316.253L889.82 -306.88L886.896 -305.253L869.91 -295.381L852.841 -284.926L850.378 -283.398L833.442 -272.51L816.487 -261.087L814.496 -259.695L797.733 -247.897L781.008 -235.615L764.341 -222.862L747.766 -209.663L746.646 -208.742L730.386 -195.283L714.271 -181.432L698.326 -167.213L682.583 -152.66L667.063 -137.785L651.801 -122.622L636.822 -107.198L622.15 -91.5283L607.812 -75.6479L593.831 -59.5872L580.229 -43.3692L579.366 -42.3216L566.014 -25.7774L553.092 -9.14112L540.626 7.57586L528.64 24.3349L527.309 26.2493L515.691 43.2158L504.606 60.1704L494.07 77.0831L492.474 79.6613L482.387 96.693L472.891 113.617L471.203 116.656L462.214 133.641L460.56 136.937L452.111 153.941L444.326 170.743L442.627 174.468L435.44 191.224L433.81 195.187L427.249 211.854L425.687 216.048L419.783 232.596L418.298 237.004L413.076 253.399L411.683 258.015L407.167 274.21L405.874 279.025L400.902 299.989L399.866 305.023L396.815 320.85L395.895 326.06L395.123 331.289L392.844 346.936L392.2 352.323L390.757 367.593L390.247 373.13L389.89 378.674L389.28 393.656L389.065 399.327L389 405.002L389.088 410.676L389.349 425.433L389.587 431.211L389.974 436.985L391.133 451.342L391.678 457.205L392.369 463.045L393.209 468.873L395.311 482.869L396.313 488.759L397.456 494.622L398.753 500.453L401.822 514.013L403.28 519.891L404.884 525.73L406.626 531.524L410.701 544.569L412.608 550.389L414.657 556.159L416.847 561.873L421.935 574.335L424.283 580.051L426.773 585.711L429.397 591.305L432.156 596.833L438.303 608.681L441.215 614.18L444.257 619.609L447.426 624.965L450.726 630.236L457.928 641.398L461.369 646.619L464.938 651.761L468.621 656.81L472.431 661.771L480.665 672.161L484.601 677.049L488.653 681.837L492.819 686.526L497.09 691.111L506.333 700.668L510.722 705.165L515.215 709.55L519.808 713.821L524.5 717.984L534.706 726.647L539.498 730.695L544.382 734.628L549.351 738.438L554.412 742.125L570.672 753.405L575.886 756.839L581.185 760.142L586.552 763.315L598.531 770.045L603.948 773.076L609.439 775.973L614.99 778.739L620.604 781.36L633.365 787.069L639.009 789.544L644.699 791.872L650.45 794.064L656.24 796.109L669.699 800.782L675.493 802.67L681.329 804.407L687.195 806L701.314 809.652L707.158 811.083L713.032 812.368L718.929 813.501L733.628 816.144L739.479 817.115L745.345 817.932L751.227 818.604L766.425 820.25L772.23 820.76L778.042 821.117L793.75 821.8L799.467 821.999L805.184 822.053L826.95 821.681L832.536 821.427L854.548 819.835L859.985 819.286L876.874 817.184L882.154 816.501L887.41 815.672L904.568 812.687L909.648 811.728L914.697 810.623L932.059 806.798L936.912 805.581L954.569 800.916L959.223 799.592L977.13 794.117L981.561 792.702L999.674 786.436L1003.88 784.936L1022.14 777.915L1026.1 776.337L1044.48 768.583L1048.18 766.949L1066.62 758.493L1070.07 756.808L1088.53 747.677L1107.15 737.805L1110.13 736.19L1128.69 725.711L1147.35 714.542L1149.83 713.034L1168.34 701.332L1186.86 688.985L1188.82 687.631L1207.11 674.824L1225.35 661.426L1243.48 647.475L1261.48 632.991L1262.49 632.155L1280.11 617.353L1297.52 602.086L1314.69 586.397L1331.58 570.314L1348.15 553.865L1364.36 537.087L1380.2 520.017L1395.62 502.682L1410.58 485.129L1411.35 484.201L1426.01 466.252L1440.16 448.15L1453.77 429.941L1466.81 411.662L1468.1 409.782L1480.68 391.251L1492.62 372.727L1503.91 354.241L1505.49 351.64L1516.21 333.027L1527.92 311.438L1537.32 292.902L1538.97 289.53L1547.72 270.994L1549.32 267.361L1557.38 248.872L1564.64 230.669L1566.26 226.591L1572.76 208.52L1574.3 204.211L1580.03 186.324L1581.48 181.785L1582.78 177.2L1587.76 159.378L1588.96 154.586L1593.1 137.044L1594.19 132.057L1597.49 114.841L1598.45 109.669L1599.27 104.47L1601.72 87.4921L1602.41 82.1285L1602.94 76.7416L1604.49 60.067L1604.89 54.5417L1605.14 48.994L1605.77 32.6914L1605.87 27.0248L1605.81 21.3537L1605.5 5.48102L1605.29 -0.297599L1604.92 -6.07175L1603.64 -21.4498L1603.12 -27.3045L1602.45 -33.1519L1601.63 -38.9912L1599.36 -53.8894L1598.37 -59.7868L1597.24 -65.6572L1595.96 -71.5006L1592.68 -85.8577L1591.23 -91.7395L1589.64 -97.5828L1587.9 -103.396L1583.61 -117.123L1581.71 -122.94L1579.67 -128.718L1577.48 -134.443L1572.18 -147.473L1569.84 -153.186L1567.35 -158.848L1564.73 -164.447L1561.97 -169.991L1555.64 -182.276L1552.74 -187.774L1549.69 -193.211L1546.52 -198.567L1543.22 -203.854L1535.88 -215.315L1532.44 -220.536L1528.88 -225.674L1525.18 -230.727L1521.37 -235.696L1513.07 -246.258L1509.13 -251.139L1505.08 -255.923L1500.92 -260.62L1496.63 -265.208" fill="#D3FFF9"/>
<path d="M1439.44 -316.199L1449.46 -307.647L1458.57 -298.143L1466.76 -287.703L1473.99 -276.338L1480.25 -264.061L1485.52 -250.901L1489.8 -236.881L1493.07 -222.025L1495.32 -206.348L1496.53 -189.892L1496.7 -172.669L1495.81 -154.712L1493.86 -136.058L1490.86 -116.74L1486.81 -96.7924L1481.71 -76.2656L1475.58 -55.1902L1468.41 -33.6121L1460.22 -11.5658L1451 10.9063L1440.78 33.7467L1429.58 56.9208L1417.44 80.379L1404.35 104.063L1390.35 127.932L1375.49 151.931L1359.76 176.011L1343.19 200.117L1325.84 224.209L1307.73 248.227L1288.91 272.118L1269.42 295.838L1249.29 319.33L1228.57 342.543L1207.3 365.422L1185.52 387.924L1163.29 409.997L1140.65 431.594L1117.64 452.674L1094.33 473.193L1070.76 493.106L1046.99 512.363L1023.05 530.925L999.014 548.755L974.919 565.813L950.824 582.066L926.775 597.49L902.83 612.05L879.034 625.717L855.438 638.463L832.099 650.261L809.059 661.084L786.36 670.922L764.057 679.75L742.187 687.57L720.797 694.365L699.925 700.12L679.621 704.831L659.919 708.488L640.858 711.082L622.48 712.616L604.807 713.1L587.876 712.543L571.707 710.947L556.341 708.319L541.792 704.674L528.102 700.016L515.287 694.353L503.37 687.708L492.363 680.107L482.279 671.566L473.125 662.113L464.93 651.768" fill="#D3FFF9"/>
<path d="M1373.9 -355.113L1385.35 -348.656L1395.95 -341.247L1405.7 -332.902L1414.56 -323.628L1422.51 -313.434L1429.51 -302.33L1435.58 -290.337L1440.67 -277.475L1444.78 -263.77L1447.92 -249.244L1450.04 -233.924L1451.15 -217.829L1451.24 -200.989L1450.29 -183.424L1448.31 -165.177L1445.29 -146.276L1441.25 -126.766L1436.19 -106.685L1430.11 -86.0659L1423.02 -64.9481L1414.92 -43.3742L1405.83 -21.3852L1395.76 0.975319L1384.73 23.6586L1372.77 46.6142L1359.9 69.8038L1346.14 93.1695L1331.53 116.666L1316.07 140.239L1299.81 163.847L1282.77 187.439L1265 210.959L1246.53 234.363L1227.4 257.599L1207.66 280.612L1187.34 303.356L1166.48 325.779L1145.14 347.832L1123.34 369.468L1101.15 390.647L1078.61 411.316L1055.77 431.44L1032.68 450.969L1009.39 469.865L985.947 488.082L962.404 505.586L938.812 522.333L915.216 538.302L891.669 553.454L868.227 567.765L844.934 581.205L821.836 593.751L798.988 605.365L776.439 616.028L754.224 625.727L732.401 634.444L710.999 642.172L690.065 648.894L669.65 654.607L649.783 659.295L630.507 662.948L611.868 665.565L593.893 667.141L576.608 667.69L560.044 667.218L544.241 665.733L529.212 663.236L514.997 659.74L501.614 655.251L489.095 649.776L477.45 643.342L466.696 635.964L456.846 627.665L447.922 618.472L439.922 608.4L432.866 597.477L426.766 585.721" fill="#D3FFF9"/>
<path d="M1289.36 -384.298L1302.63 -380.86L1315.16 -376.486L1326.93 -371.188L1337.92 -364.964L1348.09 -357.828L1357.44 -349.786L1365.92 -340.85L1373.52 -331.02L1380.22 -320.312L1385.99 -308.748L1390.83 -296.347L1394.72 -283.13L1397.66 -269.122L1399.63 -254.342L1400.63 -238.819L1400.63 -222.573L1399.63 -205.63L1397.63 -188.031L1394.64 -169.802L1390.66 -150.983L1385.7 -131.611L1379.75 -111.721L1372.84 -91.3518L1364.95 -70.5368L1356.1 -49.327L1346.32 -27.7607L1335.61 -5.87531L1324 16.2703L1311.53 38.6388L1298.19 61.18L1284.03 83.8515L1269.07 106.596L1253.33 129.379L1236.84 152.143L1219.65 174.845L1201.79 197.432L1183.3 219.854L1174.07 230.605L1174.06 230.62L1174.05 230.628L1164.22 242.069L1144.59 264.027L1124.44 285.678L1103.82 306.976L1082.77 327.871L1061.34 348.329L1039.58 368.3L1017.52 387.744L995.236 406.625L972.756 424.892L950.135 442.511L927.421 459.438L904.653 475.645L881.886 491.1L859.168 505.775L836.55 519.645L814.078 532.671L791.798 544.838L769.752 556.11L747.997 566.47L726.573 575.893L705.516 584.38L684.875 591.907L664.682 598.472L644.987 604.062L625.826 608.667L607.233 612.273L589.25 614.878L571.912 616.486L555.241 617.096L539.268 616.724L524.021 615.366L509.53 613.037L495.817 609.745L482.914 605.49L470.839 600.283L459.613 594.144L449.242 587.096L439.754 579.158L431.144 570.349L423.44 560.695L416.641 550.213L410.771 538.925L405.833 526.843L401.827 514.013" fill="#D3FFF9"/>
<path d="M1214.56 -394.396L1228.47 -392.922L1241.73 -390.555L1254.31 -387.29L1266.18 -383.135L1277.32 -378.089L1287.71 -372.173L1297.32 -365.382L1306.14 -357.732L1314.14 -349.226L1321.29 -339.875L1327.58 -329.689L1332.99 -318.685L1337.52 -306.887L1341.14 -294.313L1343.85 -280.988L1345.65 -266.934L1346.51 -252.17L1346.42 -236.719L1345.39 -220.608L1343.41 -203.873L1340.48 -186.542L1336.63 -168.647L1331.82 -150.231L1326.1 -131.323L1319.44 -111.959L1311.87 -92.1761L1303.39 -72.014L1294.02 -51.5137L1283.77 -30.7182L1272.68 -9.66595L1260.76 11.5935L1248.03 33.0181L1234.52 54.5616L1220.25 76.1859L1205.24 97.8329L1189.53 119.472L1173.15 141.051L1156.14 162.521L1138.54 183.842L1120.37 204.964L1101.68 225.844L1082.51 246.432L1062.9 266.686L1042.87 286.565L1022.49 306.025L1001.8 325.032L980.832 343.541L959.646 361.513L938.275 378.909L916.769 395.687L895.176 411.817L873.533 427.267L851.897 442.005L830.307 456.005L808.81 469.238L787.451 481.68L766.275 493.302L745.323 504.08L724.646 513.99L704.281 523.022L684.272 531.16L664.647 538.392L645.455 544.707L626.731 550.102L608.51 554.557L590.834 558.067L573.738 560.63L557.247 562.234L541.393 562.901L526.204 562.629L511.701 561.424L497.919 559.291L484.874 556.245L472.596 552.278L461.109 547.405L450.431 541.646L440.57 535.016L431.535 527.538L423.347 519.227L416.015 510.115L409.55 500.204L403.964 489.523L399.264 478.093L395.457 465.938L392.542 453.085L390.508 439.572L389.365 425.422" fill="#D3FFF9"/>
<path d="M1094.78 -385.423L1110.42 -388.155L1125.59 -390.073L1140.25 -391.174L1154.39 -391.446L1167.98 -390.89L1180.98 -389.501L1193.36 -387.276L1205.09 -384.203L1216.16 -380.293L1226.54 -375.554L1236.21 -369.995L1245.16 -363.618L1253.35 -356.432L1260.78 -348.447L1267.41 -339.677L1273.22 -330.115L1278.22 -319.795L1282.37 -308.725L1285.69 -296.939L1288.15 -284.443L1289.74 -271.267L1290.47 -257.428L1290.31 -242.951L1289.26 -227.854L1287.33 -212.176L1284.51 -195.939L1280.82 -179.18L1276.25 -161.93L1270.82 -144.227L1264.51 -126.098L1257.36 -107.578L1249.35 -88.7045L1240.52 -69.5131L1230.87 -50.0493L1220.43 -30.3472L1209.22 -10.4574L1197.25 9.59369L1184.56 29.756L1171.16 49.9912L1157.07 70.2493L1142.33 90.4962L1126.97 110.689L1111.03 130.782L1094.53 150.734L1077.51 170.501L1060 190.049L1042.05 209.322L1023.67 228.287L1004.93 246.895L985.847 265.124L966.471 282.926L946.849 300.269L927.017 317.108L907.02 333.415L886.896 349.149L866.687 364.278L846.437 378.773L826.19 392.605L805.985 405.749L785.869 418.185L765.879 429.879L746.063 440.818L726.456 450.962L707.104 460.301L688.039 468.823L669.308 476.504L650.933 483.345L632.962 489.33L615.431 494.452L598.369 498.7L581.814 502.065L565.795 504.539L550.348 506.128L535.492 506.834L521.254 506.661L507.664 505.61L494.738 503.695L482.506 500.917L470.992 497.284L460.222 492.799L450.197 487.477L440.946 481.342L432.471 474.409L424.782 466.697L417.894 458.222L411.821 449.002L406.572 439.049L402.156 428.394L398.576 417.057L395.837 405.063L393.918 392.44L392.84 379.214L392.591 365.421L393.17 351.075L394.578 336.208L396.815 320.842" fill="#D3FFF9"/>
<path d="M944.088 -334.903L960.798 -342.435L977.272 -349.287L993.479 -355.457L1009.39 -360.917L1024.97 -365.659L1040.19 -369.669L1055.02 -372.93L1069.44 -375.443L1083.42 -377.2L1096.92 -378.198L1109.94 -378.435L1122.44 -377.906L1134.39 -376.601L1145.77 -374.522L1156.55 -371.667L1166.7 -368.038L1176.22 -363.641L1185.09 -358.488L1193.28 -352.579L1200.77 -345.93L1207.55 -338.54L1213.59 -330.422L1218.88 -321.586L1223.41 -312.044L1227.17 -301.819L1230.15 -290.926L1232.35 -279.385L1233.74 -267.222L1234.33 -254.446L1234.12 -241.09L1233.08 -227.159L1231.22 -212.698L1228.55 -197.727L1225.08 -182.276L1220.8 -166.376L1215.73 -150.055L1209.85 -133.349L1203.21 -116.287L1195.77 -98.899L1187.57 -81.2265L1178.64 -63.297L1168.97 -45.1531L1158.6 -26.8363L1147.54 -8.36966L1135.81 10.1925L1123.44 28.8165L1110.43 47.4747L1096.83 66.11L1082.66 84.6993L1067.96 103.2L1052.74 121.571L1037.06 139.773L1020.93 157.767L1004.38 175.516L987.459 192.977L970.19 210.124L952.618 226.914L935.01 243.109L934.78 243.316L916.713 259.296L898.457 274.82L880.045 289.856L861.513 304.367L842.912 318.325L824.269 331.704L805.63 344.473L787.026 356.616L768.505 368.107L750.1 378.923L731.849 389.041L713.789 398.437L695.963 407.093L678.406 414.997L661.148 422.133L644.216 428.498L627.657 434.077L611.496 438.865L595.766 442.848L580.503 446.017L565.731 448.373L551.481 449.908L537.773 450.633L524.635 450.548L512.089 449.658L500.153 447.966L488.857 445.48L478.222 442.203L468.262 438.144L458.999 433.31L450.44 427.72L442.597 421.397L435.48 414.348L429.107 406.594L423.478 398.149L418.614 389.033L414.516 379.257L411.189 368.848L408.634 357.829L406.85 346.23L405.829 334.067L405.58 321.372L406.102 308.165L407.387 294.472L409.44 280.31L412.248 265.723L415.797 250.725L420.083 235.358L425.086 219.643L430.807 203.617L437.222 187.303L444.335 170.728" fill="#D3FFF9"/>
<path d="M1179.54 -231.155L1178.54 -218.517L1176.8 -205.395L1174.31 -191.817L1171.11 -177.805L1167.17 -163.39L1162.52 -148.6L1157.15 -133.459L1151.07 -118.001L1144.29 -102.251L1136.82 -86.244L1128.68 -70.0104L1119.89 -53.5851L1110.46 -36.9949L1100.41 -20.2856L1089.77 -3.48423L1078.54 13.3707L1066.74 30.2526L1054.41 47.1226L1041.56 63.9433L1028.23 80.6833L1014.45 97.3041L1000.25 113.776L985.635 130.059L970.652 146.123L955.336 161.931L939.705 177.447L923.801 192.652L907.66 207.505L891.308 221.977L874.783 236.039L858.123 249.659L841.357 262.812L824.525 275.469L807.654 287.597L790.784 299.188L773.948 310.207L757.181 320.644L740.522 330.473L723.997 339.67L707.652 348.219L691.511 356.103L675.604 363.309L659.969 369.82L644.633 375.64L629.624 380.751L614.975 385.14L600.713 388.812L586.87 391.743L573.468 393.942L560.538 395.4L548.1 396.121L536.171 396.109L524.772 395.369L513.933 393.907L503.666 391.72L493.997 388.812L484.938 385.194L476.509 380.877L468.713 375.874L461.568 370.203L455.081 363.869L449.268 356.897L444.13 349.289L439.684 341.074L435.935 332.254L432.885 322.857L430.533 312.901L428.883 302.411L427.931 291.415L427.678 279.928L428.123 267.964L429.267 255.564L431.104 242.73L433.633 229.505L436.844 215.903L440.719 201.96L445.251 187.699L450.434 173.146L456.258 158.328L462.708 143.269L469.779 128.002L477.453 112.548L485.713 96.936L494.542 81.201L503.919 65.3631L513.833 49.4555L524.258 33.5062L535.185 17.545L546.592 1.58795L558.459 -14.3232L570.76 -30.1693L583.478 -45.9191L596.581 -61.5464L610.056 -77.024L623.868 -92.3252L638.007 -107.423L652.441 -122.287L667.147 -136.901L682.099 -151.231L697.274 -165.255L712.636 -178.952L728.164 -192.3L743.833 -205.269L759.614 -217.834L775.483 -229.974L791.406 -241.668L807.359 -252.902L823.32 -263.645L839.25 -273.89L855.127 -283.612L870.919 -292.79L886.6 -301.411L902.147 -309.445L917.525 -316.889L932.711 -323.726L947.674 -329.949L962.388 -335.539L976.834 -340.485L990.972 -344.778L1004.78 -348.404L1018.23 -351.347L1031.3 -353.607L1043.96 -355.18L1056.2 -356.058L1067.98 -356.246L1079.29 -355.74L1090.1 -354.527L1100.37 -352.613L1110.11 -349.988L1119.28 -346.662L1127.87 -342.641L1135.85 -337.93L1143.22 -332.539L1149.96 -326.477L1156.05 -319.743L1161.46 -312.349L1166.2 -304.304L1170.24 -295.621L1173.59 -286.321L1176.22 -276.422L1178.14 -265.936L1179.34 -254.882L1179.81 -243.283L1179.54 -231.155Z" fill="#D3FFF9"/>
<path d="M1128.42 -213.564L1127.47 -202.299L1125.86 -190.601L1123.61 -178.5L1120.7 -166.019L1117.15 -153.184L1112.97 -140.013L1108.15 -126.538L1102.7 -112.783L1096.63 -98.7751L1089.95 -84.5329L1082.68 -70.095L1074.83 -55.4923L1066.42 -40.7475L1057.46 -25.8914L1047.97 -10.9586L1037.97 4.02017L1027.46 19.0181L1016.49 34.0085L1005.06 48.9527L993.202 63.8242L982.156 77.134L980.948 78.5957L968.313 93.2255L955.326 107.694L942.012 121.967L928.395 136.013L914.51 149.807L900.379 163.316L886.037 176.514L871.511 189.383L856.828 201.887L842.025 214.004L827.131 225.706L812.175 236.963L797.185 247.764L782.191 258.084L767.231 267.903L752.329 277.203L737.519 285.966L722.832 294.177L708.294 301.808L693.941 308.857L679.79 315.302L665.878 321.134L652.231 326.349L638.871 330.937L625.826 334.897L613.126 338.204L600.791 340.871L588.851 342.874L577.325 344.224L566.229 344.922L555.586 344.969L545.419 344.362L535.738 343.116L526.568 341.228L517.924 338.699L509.825 335.534L502.281 331.743L495.31 327.342L488.91 322.339L483.094 316.753L477.872 310.587L473.256 303.861L469.254 296.583L465.878 288.764L463.123 280.43L460.99 271.598L459.482 262.286L458.6 252.51L458.339 242.296L458.703 231.657L459.693 220.622L461.305 209.196L463.53 197.417L466.369 185.301L469.803 172.873L473.828 160.154L478.432 147.178L483.612 133.957L489.355 120.524L495.655 106.888L502.5 93.0912L509.863 79.152L517.744 65.094L526.112 50.9402L534.959 36.7287L544.275 22.4714L554.036 8.19841L564.23 -6.06298L574.835 -20.2896L585.835 -34.459L597.2 -48.5477L608.921 -62.5251L620.969 -76.3682L633.323 -90.0579L645.969 -103.563L658.88 -116.858L672.036 -129.93L685.411 -142.745L698.982 -155.287L712.726 -167.542L726.615 -179.474L740.627 -191.069L754.742 -202.307L768.931 -213.157L783.165 -223.609L797.434 -233.642L811.695 -243.245L825.934 -252.389L840.118 -261.071L854.234 -269.263L868.238 -276.952L882.12 -284.119L895.851 -290.753L909.403 -296.838L922.755 -302.378L935.885 -307.35L948.765 -311.743L961.369 -315.554L973.677 -318.761L985.655 -321.362L997.296 -323.35L1008.57 -324.724L1019.45 -325.479L1029.93 -325.614L1039.98 -325.126L1049.58 -324.01L1058.71 -322.264L1067.35 -319.889L1075.48 -316.885L1083.09 -313.267L1090.15 -309.031L1096.67 -304.193L1102.62 -298.748L1108 -292.717L1112.77 -286.094L1116.93 -278.893L1120.48 -271.127L1123.4 -262.813L1125.68 -253.966L1127.34 -244.6L1128.35 -234.732L1128.71 -224.384L1128.42 -213.564Z" fill="#D3FFF9"/>
<path d="M1082.22 -188.81L1081.35 -178.953L1079.91 -168.724L1077.89 -158.146L1075.32 -147.238L1072.19 -136.027L1068.5 -124.528L1064.26 -112.761L1059.48 -100.755L1054.16 -88.5313L1048.3 -76.1077L1041.94 -63.5155L1035.08 -50.7774L1027.72 -37.9242L1019.89 -24.975L1011.61 -11.9606L1002.87 1.09611L993.703 14.1603L984.127 27.2207L974.159 40.2426L963.819 53.1995L953.133 66.0644L942.122 78.8102L930.803 91.4179L919.201 103.849L907.341 116.084L895.24 128.101L882.928 139.869L870.431 151.375L857.781 162.59L844.993 173.491L832.098 184.053L819.122 194.259L806.084 204.081L793.024 213.504L779.964 222.513L766.926 231.085L753.935 239.211L741.024 246.873L728.221 254.052L715.54 260.731L703.017 266.901L690.678 272.549L678.538 277.667L666.621 282.248L654.957 286.284L643.566 289.772L632.466 292.7L621.689 295.059L611.249 296.851L601.169 298.075L591.459 298.723L582.143 298.808L573.238 298.328L564.758 297.284L556.72 295.677L549.139 293.513L542.029 290.793L535.407 287.524L529.275 283.725L523.643 279.398L518.525 274.556L513.925 269.211L509.854 263.367L506.316 257.044L503.32 250.249L500.876 242.994L498.973 235.305L497.614 227.186L496.801 218.669L496.54 209.76L496.82 200.479L497.653 190.844L499.03 180.865L500.949 170.575L503.4 159.981L506.378 149.115L509.877 137.997L513.882 126.64L518.394 115.068L523.405 103.304L528.907 91.3717L534.877 79.286L541.319 67.0733L548.206 54.7535L555.531 42.3568L563.273 29.895L571.427 17.3986L579.975 4.88305L588.907 -7.62493L598.2 -20.1023L607.842 -32.5295L617.806 -44.8878L628.077 -57.1465L638.643 -69.2936L649.478 -81.2951L660.57 -93.1469L671.893 -104.807L683.434 -116.271L695.167 -127.513L707.072 -138.521L719.128 -149.264L731.309 -159.727L743.606 -169.89L755.98 -179.739L768.426 -189.247L780.915 -198.405L793.419 -207.195L805.923 -215.602L818.408 -223.613L830.843 -231.206L843.209 -238.369L855.483 -245.095L867.642 -251.353L879.666 -257.147L891.534 -262.461L903.22 -267.287L914.708 -271.615L925.976 -275.44L937 -278.744L947.754 -281.525L958.229 -283.774L968.392 -285.481L978.237 -286.648L987.741 -287.273L996.88 -287.357L1005.64 -286.889L1014.02 -285.877L1021.97 -284.311L1029.48 -282.197L1036.56 -279.534L1043.17 -276.326L1049.31 -272.59L1054.97 -268.319L1060.13 -263.523L1064.78 -258.213L1068.9 -252.389L1072.5 -246.062L1075.55 -239.244L1078.06 -231.95L1080.01 -224.193L1081.41 -215.982L1082.24 -207.341L1082.52 -198.279L1082.22 -188.81Z" fill="#D3FFF9"/>
<path d="M1042.44 -157.736L1041.66 -149.292L1040.4 -140.529L1038.65 -131.47L1036.43 -122.139L1033.72 -112.539L1030.55 -102.702L1026.91 -92.6453L1022.8 -82.3819L1018.23 -71.9344L1013.22 -61.3219L1007.76 -50.5673L1001.89 -39.6898L995.598 -28.7167L988.903 -17.663L981.816 -6.55551L974.354 4.58273L967.981 13.6643L966.523 15.7362L958.346 26.8746L949.833 37.9818L941.012 49.0357L931.892 60.005L922.5 70.8784L912.842 81.6252L902.943 92.2304L892.826 102.67L882.505 112.914L872.007 122.959L861.349 132.774L850.556 142.339L839.652 151.639L828.648 160.656L817.583 169.365L806.464 177.752L797.647 184.121L797.578 184.175L795.321 185.802L784.176 193.494L773.049 200.823L761.965 207.771L750.941 214.321L740.01 220.463L729.183 226.18L718.486 231.467L707.939 236.305L697.564 240.702L687.377 244.635L677.402 248.111L667.66 251.115L658.164 253.644L648.937 255.689L639.993 257.25L631.356 258.321L623.038 258.912L615.05 259.011L607.407 258.636L600.133 257.776L593.226 256.433L586.708 254.618L580.599 252.324L574.902 249.565L569.619 246.346L564.765 242.674L560.349 238.565L556.374 234.023L552.848 229.054L549.782 223.663L547.181 217.877L545.048 211.692L543.379 205.128L542.178 198.202L541.445 190.924L541.184 183.312L541.391 175.377L542.07 167.14L543.214 158.607L544.825 149.797L546.897 140.727L549.418 131.423L552.388 121.9L555.798 112.166L559.643 102.252L563.917 92.1689L568.613 81.9324L573.716 71.5654L579.222 61.0872L585.115 50.5205L591.385 39.8774L598.018 29.1843L605.002 18.4564L612.33 7.71345L619.988 -3.0295L627.957 -13.7456L636.225 -24.4159L644.781 -35.0284L653.594 -45.5604L662.665 -55.9888L671.965 -66.3019L681.488 -76.4771L691.214 -86.4949L701.124 -96.3363L711.2 -105.99L721.425 -115.44L731.781 -124.66L742.243 -133.641L752.798 -142.362L763.43 -150.815L774.115 -158.976L784.836 -166.826L795.578 -174.361L806.314 -181.567L817.026 -188.427L827.7 -194.926L838.309 -201.061L848.841 -206.813L859.273 -212.165L869.586 -217.114L879.762 -221.65L889.779 -225.767L899.625 -229.45L909.278 -232.703L918.72 -235.508L927.932 -237.86L936.899 -239.752L945.597 -241.183L954.015 -242.15L962.137 -242.652L969.949 -242.683L977.438 -242.245L984.582 -241.34L991.37 -239.963L997.785 -238.113L1003.81 -235.796L1009.44 -233.014L1014.67 -229.772L1019.49 -226.081L1023.87 -221.941L1027.82 -217.36L1031.31 -212.342L1034.35 -206.893L1036.93 -201.031L1039.04 -194.757L1040.68 -188.093L1041.84 -181.045L1042.53 -173.628L1042.73 -165.855L1042.44 -157.736Z" fill="#D3FFF9"/>
<path d="M1010.26 -121.337L1009.59 -114.254L1008.51 -106.914L1007.03 -99.3328L1005.16 -91.5172L1002.88 -83.4907L1000.21 -75.2645L997.16 -66.8544L993.715 -58.2753L989.889 -49.5467L985.692 -40.6836L981.134 -31.6978L976.219 -22.6163L970.958 -13.4577L968.119 -8.76927L965.364 -4.23416L959.448 5.03548L953.217 14.3283L946.683 23.6323L939.858 32.9214L932.76 42.1831L925.4 51.3993L917.792 60.55L909.957 69.6124L901.904 78.5791L893.655 87.419L885.218 96.1169L876.612 104.662L867.86 113.037L858.974 121.217L849.973 129.198L840.88 136.956L831.71 144.476L822.479 151.743L813.205 158.737L803.916 165.455L794.616 171.878L785.331 177.994L776.08 183.799L775.256 184.286L775.213 184.313L775.194 184.325L766.884 189.274L757.756 194.404L748.713 199.188L739.78 203.608L730.968 207.664L722.3 211.343L713.786 214.647L705.445 217.563L697.292 220.084L689.346 222.213L681.623 223.943L674.137 225.267L666.897 226.184L659.926 226.694L653.231 226.806L646.819 226.51L640.707 225.816L634.906 224.718L629.435 223.222L624.293 221.327L619.494 219.044L615.043 216.373L610.953 213.327L607.224 209.905L603.862 206.129L600.881 201.989L598.276 197.504L596.062 192.674L594.244 187.517L592.809 182.038L591.769 176.256L591.124 170.179L590.871 163.817L591.013 157.183L591.542 150.292L592.475 143.152L593.791 135.782L595.498 128.189L597.582 120.396L600.045 112.416L602.876 104.266L606.076 95.9557L609.633 87.5033L613.55 78.9205L617.813 70.2303L622.409 61.444L627.332 52.5771L632.577 43.6491L638.129 34.6748L643.972 25.6699L650.111 16.6533L656.522 7.64058L663.206 -1.35272L670.139 -10.3116L677.306 -19.2207L684.7 -28.0567L692.308 -36.8162L700.112 -45.472L708.1 -54.0126L716.261 -62.4191L724.579 -70.6835L733.039 -78.783L741.619 -86.7099L750.313 -94.4448L759.095 -101.976L767.958 -109.297L776.882 -116.38L785.853 -123.217L794.85 -129.797L803.863 -136.108L812.871 -142.14L821.865 -147.88L830.82 -153.32L839.721 -158.454L848.553 -163.257L857.301 -167.724L865.949 -171.852L874.479 -175.631L882.877 -179.057L891.127 -182.127L899.211 -184.824L907.122 -187.149L914.834 -189.091L922.335 -190.644L929.617 -191.811L936.658 -192.59L943.452 -192.977L949.983 -192.97L956.241 -192.574L962.207 -191.78L967.87 -190.591L973.222 -189.006L978.252 -187.03L982.948 -184.667L987.299 -181.919L991.309 -178.793L994.958 -175.297L998.234 -171.43L1001.13 -167.202L1003.66 -162.613L1005.79 -157.679L1007.53 -152.403L1008.88 -146.805L1009.83 -140.885L1010.37 -134.658L1010.52 -128.143L1010.26 -121.337Z" fill="#D3FFF9"/>
<path d="M780.218 176.946L774.236 180.111L773.492 180.502L766.206 184.113L762.093 186.008L762.085 186.008L761.87 186.108L761.859 186.112L761.797 186.143L761.667 186.204L761.602 186.231L759.02 187.424L751.941 190.428L744.992 193.126L738.182 195.516L731.521 197.58L725.029 199.33L718.714 200.749L712.591 201.839L706.674 202.599L700.965 203.028L695.479 203.128L690.226 202.902L685.215 202.349L680.458 201.467L675.965 200.258L671.741 198.727L667.796 196.878L664.14 194.71L660.767 192.235L657.69 189.458L654.916 186.384L652.449 183.012L650.293 179.359L648.455 175.426L646.936 171.221L645.735 166.759L644.852 162.04L644.296 157.079L644.058 151.884L644.139 146.47L644.549 140.842L645.282 135.006L646.333 128.982L647.703 122.778L649.384 116.401L651.371 109.879L653.665 103.211L656.263 96.4078L659.152 89.4902L662.336 82.4689L665.805 75.3477L669.553 68.154L673.571 60.8908L677.849 53.5816L682.376 46.2305L687.157 38.8562L692.167 31.4665L697.412 24.0807L702.876 16.714L708.543 9.37427L714.413 2.07665L720.464 -5.16333L726.687 -12.3382L733.079 -19.4285L739.625 -26.4268L746.305 -33.3139L753.119 -40.0821L760.044 -46.7157L767.077 -53.2038L774.198 -59.5421L781.396 -65.7041L788.659 -71.6932L795.968 -77.4907L803.315 -83.0807L810.69 -88.4599L818.075 -93.6204L825.457 -98.5469L832.82 -103.239L840.152 -107.679L847.446 -111.864L854.682 -115.778L861.842 -119.423L868.921 -122.78L875.9 -125.853L882.775 -128.639L889.524 -131.121L896.139 -133.308L902.608 -135.181L908.915 -136.746L915.046 -137.989L920.993 -138.918L926.752 -139.528L932.3 -139.812L937.634 -139.781L942.74 -139.424L947.609 -138.745L952.229 -137.74L956.591 -136.416L960.689 -134.774L964.514 -132.805L968.059 -130.534L971.317 -127.952L974.286 -125.067L976.953 -121.878L979.309 -118.394L981.354 -114.623L983.076 -110.567L984.485 -106.236L985.567 -101.639L986.33 -96.7857L986.764 -91.6867L986.867 -86.3422L986.645 -80.7711L986.085 -74.9776L985.198 -68.973L983.978 -62.7727L982.44 -56.3845L980.571 -49.8273L978.388 -43.1092L975.886 -36.2413L973.074 -29.2392L969.966 -22.1489L969.947 -22.1143L969.909 -22.0299L969.893 -21.9914L969.713 -21.6192L966.521 -14.882L965.051 -11.9852L964.971 -11.8278L962.803 -7.55746L959.768 -1.95965" fill="#D3FFF9"/>
<path d="M970.881 -25.5729L970.762 -25.2392L970.704 -25.0818L970.566 -24.7057L970.52 -24.5753L970.517 -24.5639L970.413 -24.2761L970.401 -24.2492L969.83 -22.68" fill="#D3FFF9"/>
<path d="M971.275 -26.9165L970.873 -25.6696L970.623 -24.9139L970.611 -24.8791L970.569 -24.7372L970.423 -24.292L970.412 -24.2576" fill="#D3FFF9"/>
<path d="M971.395 -27.7162L970.597 -24.9229L970.578 -24.8577" fill="#D3FFF9"/>
<path d="M971.341 -28.046L970.539 -24.7194Z" fill="#D3FFF9"/>
<path d="M759.441 186.673L759.042 186.765L754.154 187.64L749.423 188.25L744.861 188.599L740.476 188.688L736.27 188.511L732.261 188.078L728.451 187.383L724.848 186.428L721.46 185.212L718.295 183.742L715.356 182.023L712.647 180.059L710.169 177.849L707.932 175.405L705.941 172.723L704.199 169.815L702.706 166.687L701.467 163.338L700.485 159.778L699.756 156.017L699.284 152.062L699.073 147.922L699.115 143.605L699.418 139.113L699.978 134.455L700.796 129.647L701.866 124.694L703.186 119.606L704.755 114.392L706.566 109.067L708.619 103.638L710.909 98.1089L713.438 92.4955L716.192 86.8094L719.174 81.0581L722.37 75.2531L725.773 69.4097L729.38 63.5316L733.189 57.6347L737.184 51.7296L741.37 45.8248L745.724 39.9356L750.252 34.065L754.936 28.2294L759.767 22.4396L764.735 16.7037L769.842 11.0368L775.068 5.44265L780.413 -0.0631264L785.857 -5.46916L791.397 -10.7714L797.014 -15.9588L802.708 -21.0157L808.464 -25.9422L814.265 -30.7228L820.112 -35.3499L825.99 -39.8084L831.887 -44.1018L837.788 -48.2149L843.689 -52.1437L849.575 -55.8806L855.441 -59.4143L861.269 -62.7485L867.051 -65.8601L872.776 -68.7529L878.431 -71.4235L884.01 -73.8637L889.5 -76.0621L894.891 -78.0304L900.174 -79.7532L905.342 -81.2302L910.376 -82.4582L915.272 -83.4325L920.018 -84.1501L924.607 -84.6106L929.038 -84.8138L933.29 -84.7603L937.36 -84.457L941.243 -83.8892L944.923 -83.0643L948.399 -81.9824L951.664 -80.6433L954.71 -79.0548L957.53 -77.217L960.124 -75.1297L962.48 -72.8047L964.598 -70.2419L966.47 -67.4408L968.093 -64.4136L969.463 -61.1563L970.575 -57.6879L971.431 -54.0006L972.033 -50.1141L972.371 -46.0315L972.448 -41.7574L972.263 -37.3067L971.815 -32.6757L971.101 -27.8797L970.391 -24.2769" fill="#D3FFF9"/>
<path d="M970.243 -23.7231L970.151 -23.4852L968.808 -20.1548" fill="#D3FFF9"/>
<path d="M1582.77 177.215L1576.93 195.439L1570.23 214.037L1562.68 232.963L1554.3 252.182L1545.1 271.661L1535.11 291.348L1524.34 311.207L1512.81 331.204L1500.54 351.286L1487.56 371.421L1473.88 391.565L1459.54 411.669L1444.57 431.697L1429 451.61L1412.86 471.362L1396.19 490.91L1379.02 510.213L1361.38 529.232L1343.31 547.917L1324.85 566.238L1306.05 584.156L1286.92 601.632L1267.53 618.633L1247.91 635.12L1228.11 651.058L1208.16 666.417L1188.11 681.154L1167.99 695.246L1147.85 708.663L1127.74 721.394L1107.69 733.399L1087.75 744.656L1067.96 755.146L1048.36 764.85L1028.98 773.739L1009.88 781.8L991.084 789.025L972.633 795.406L954.553 800.93" fill="#D3FFF9"/>
<path d="M1605.12 49.0032L1603.55 65.9193L1601.03 83.4153L1597.58 101.448L1593.19 119.991L1587.87 139.006L1581.63 158.455L1574.47 178.307L1566.4 198.515L1557.44 219.045L1547.6 239.849L1536.9 260.893L1525.38 282.118L1513.04 303.497L1499.91 324.972L1486.01 346.504L1471.37 368.047L1456.02 389.556L1439.99 410.988L1423.32 432.302L1406.04 453.439L1388.19 474.361L1369.8 495.026L1350.92 515.38L1331.57 535.389L1311.81 554.998L1291.67 574.186L1271.2 592.898L1250.45 611.1L1229.45 628.753L1208.25 645.823L1186.91 662.264L1165.45 678.04L1143.93 693.127L1122.39 707.495L1100.88 721.116L1079.45 733.966L1058.13 746.013L1036.98 757.243L1016.03 767.622L995.342 777.126L974.938 785.751L954.868 793.474L935.17 800.296L915.882 806.2L897.044 811.181L878.696 815.225L860.874 818.329L843.605 820.481L826.934 821.69" fill="#D3FFF9"/>
<path d="M1598.36 -59.7866L1600.65 -44.8075L1601.96 -29.0923L1602.29 -12.6745L1601.62 4.42574L1599.95 22.1749L1597.29 40.534L1593.65 59.4686L1589.02 78.9478L1583.41 98.9258L1576.83 119.364L1569.29 140.233L1560.77 161.485L1551.32 183.078L1540.94 204.963L1529.66 227.102L1517.51 249.447L1504.5 271.95L1490.65 294.564L1475.99 317.239L1460.55 339.93L1444.36 362.59L1427.45 385.169L1409.87 407.623L1391.65 429.899L1372.82 451.953L1353.44 473.734L1333.52 495.189L1313.13 516.284L1292.29 536.968L1271.06 557.192L1249.48 576.928L1227.61 596.12L1205.48 614.74L1183.14 632.735L1160.65 650.077L1138.04 666.717L1115.37 682.624L1092.69 697.779L1070.04 712.144L1047.47 725.692L1025.03 738.407L1002.77 750.244L980.735 761.19L958.965 771.212L937.51 780.305L916.407 788.454L895.7 795.648L875.434 801.879L855.644 807.128L836.376 811.395L817.66 814.671L799.543 816.942L782.051 818.22L765.211 818.508L749.058 817.809L733.619 816.144" fill="#D3FFF9"/>
<path d="M1577.47 -134.428L1581.8 -120.566L1585.14 -105.89L1587.49 -90.4238L1588.83 -74.1983L1589.15 -57.2318L1588.43 -39.5559L1586.68 -21.2007L1583.9 -2.20839L1580.1 17.3858L1575.28 37.5404L1569.43 58.2247L1562.58 79.3884L1554.72 101.005L1545.87 123.02L1536.03 145.4L1525.24 168.087L1513.51 191.039L1500.87 214.209L1487.34 237.541L1472.94 260.999L1457.71 284.522L1441.66 308.069L1424.83 331.584L1407.26 355.023L1388.98 378.332L1370.05 401.46L1350.49 424.358L1330.35 446.976L1309.65 469.264L1288.47 491.172L1266.82 512.658L1244.77 533.668L1222.36 554.172L1199.65 574.115L1176.67 593.464L1153.48 612.165L1130.13 630.186L1106.67 647.479L1083.15 664.019L1059.61 679.769L1036.11 694.702L1012.7 708.794L989.437 722.008L966.35 734.32L943.506 745.7L920.946 756.129L898.712 765.586L876.854 774.069L855.41 781.555L834.423 788.039L813.938 793.514L793.994 797.965L774.63 801.384L755.891 803.762L737.808 805.109L720.405 805.431L703.718 804.729L687.773 803.018L672.602 800.302L658.229 796.588L644.682 791.887" fill="#D3FFF9"/>
<path d="M1543.22 -203.855L1549.58 -191.485L1554.97 -178.24L1559.36 -164.136L1562.74 -149.199L1565.1 -133.453L1566.43 -116.928L1566.72 -99.6396L1565.95 -81.6258L1564.12 -62.91L1561.24 -43.5455L1557.31 -23.56L1552.34 -2.99089L1546.33 18.1149L1539.29 39.7238L1531.21 61.7854L1522.12 84.2689L1512.03 107.125L1500.95 130.303L1488.92 153.757L1475.96 177.434L1462.08 201.283L1447.33 225.263L1431.71 249.316L1415.26 273.392L1398.01 297.445L1380.01 321.417L1361.29 345.259L1341.9 368.924L1321.86 392.355L1301.24 415.499L1280.05 438.312L1258.36 460.735L1236.2 482.731L1213.63 504.244L1190.69 525.239L1167.45 545.666L1143.94 565.479L1120.21 584.636L1096.33 603.095L1072.33 620.817L1048.28 637.764L1024.21 653.905L1000.19 669.218L976.261 683.66L952.477 697.215L928.889 709.838L905.55 721.513L882.502 732.214L859.796 741.929L837.474 750.638L815.585 758.331L794.16 765L773.257 770.632L752.911 775.224L733.163 778.758L714.055 781.229L695.62 782.645L677.886 783.005L660.885 782.334L644.652 780.619L629.205 777.88L614.575 774.124L600.805 769.354L587.902 763.588L575.889 756.839" fill="#D3FFF9"/>
<path d="M772.087 181.177L771.945 181.127L769.459 179.983L767.145 178.644L765.012 177.11L763.063 175.391L761.298 173.48L759.721 171.389L758.34 169.125L757.158 166.678L756.172 164.065L755.382 161.287L754.795 158.352L754.407 155.263L754.219 152.029L754.234 148.652L754.453 145.142L754.875 141.504L755.497 137.744L756.314 133.873L757.331 129.894L758.539 125.816L759.94 121.653L761.528 117.402L763.304 113.078L765.269 108.688L767.41 104.238L769.727 99.7409L772.214 95.1981L774.868 90.6248L777.681 86.0245L780.647 81.4087L783.766 76.7854L787.031 72.1696L790.431 67.5578L793.964 62.9653L797.625 58.3994L801.4 53.8643L805.287 49.3791L809.277 44.944L813.367 40.5699L817.541 36.2651L821.8 32.0369L826.132 27.8894L830.529 23.8377L834.983 19.8819L839.488 16.0298L844.027 12.2966L848.6 8.68231L853.2 5.19482L857.816 1.84522L862.436 -1.36243L867.051 -4.42782L871.659 -7.33996L876.248 -10.0948L880.81 -12.6847L885.334 -15.1134L889.815 -17.3616L894.239 -19.4375L898.601 -21.329L902.894 -23.0364L907.115 -24.5556L911.247 -25.8872L915.283 -27.0304L919.224 -27.9704L923.049 -28.7108L926.763 -29.2558L930.35 -29.5971L933.807 -29.7392L937.13 -29.6777L940.311 -29.4208L943.342 -28.9602L946.219 -28.2928L948.932 -27.4296L951.48 -26.3629L953.855 -25.1005L956.057 -23.6502L958.079 -22.0042L959.917 -20.1664L961.567 -18.1481L963.028 -15.942L964.291 -13.5594L965.008 -11.8444" fill="#D3FFF9"/>
<path d="M807.742 159.893L807.804 158.796L808.114 155.984L808.583 153.075L809.2 150.079L809.975 147.002L810.896 143.848L811.971 140.625L813.187 137.337L814.549 133.995L816.053 130.596L817.703 127.15L819.487 123.67L821.398 120.156L823.443 116.614L825.61 113.058L827.897 109.489L830.303 105.91L832.82 102.334L835.448 98.7694L838.176 95.2127L841 91.6828L843.916 88.1761L846.92 84.7038L850.005 81.2737L853.166 77.8896L856.393 74.5631L859.689 71.2902L863.038 68.0867L866.434 64.952L869.883 61.894L873.363 58.9205L876.877 56.0353L880.419 53.2459L883.975 50.5564L887.544 47.9704L891.123 45.4957L894.696 43.1282L898.26 40.8839L901.813 38.7659L905.339 36.7668L908.842 34.8985L912.306 33.1681L915.733 31.5759L919.109 30.1254L922.432 28.8133L925.697 27.6506L928.893 26.634L932.016 25.7669L935.062 25.0532L938.02 24.4893L940.89 24.0826L943.664 23.833L943.71 23.8331" fill="#D3FFF9"/>
<path d="M774.257 180.1L769.852 182.279L762.854 185.502" fill="#D3FFF9"/>
<path d="M844.066 132.317L836.883 138.211L828.738 144.622L820.562 150.795L812.823 156.385L812.362 156.715" fill="#D3FFF9"/>
<path d="M812.802 156.392L807.737 159.892L806.306 160.878L798.329 166.138L790.375 171.13" fill="#D3FFF9"/>
<path d="M792.321 169.908L785.349 174.056L777.706 178.361" fill="#D3FFF9"/>
<path d="M1468.1 409.791L1454.91 428.285L1441.15 446.705L1426.83 465.018L1411.99 483.177L1396.67 501.149L1380.88 518.898L1364.67 536.378L1348.06 553.556L1331.09 570.395L1313.8 586.863L1296.22 602.931L1278.4 618.559L1260.36 633.714L1242.15 648.371L1223.81 662.486L1205.36 676.037L1186.85 688.994" fill="#D3FFF9"/>
<path d="M920.431 54.9959L919.729 55.8363L913.544 63.2797L906.454 71.4827L899.168 79.5898L891.697 87.5895L884.066 95.4664L876.277 103.201L868.354 110.779L860.312 118.184L852.171 125.405L844.052 132.326L843.941 132.422" fill="#D3FFF9"/>
<path d="M944.028 23.4345L943.756 23.8221L942.804 25.1801L938.265 31.6376L932.245 39.8368L925.98 48.0052L919.73 55.8285" fill="#D3FFF9"/>
<path d="M953.026 9.56781L952.451 10.4733L947.939 17.533L943.722 23.8291L942.813 25.1833" fill="#D3FFF9"/>
<path d="M960.509 -3.22762L959.773 -1.95371L956.101 4.4423L952.444 10.4776" fill="#D3FFF9"/>
<path d="M968.082 -18.3677L965.055 -11.9795Z" fill="#D3FFF9"/>
<path d="M969.342 -21.3288L968.824 -20.1585L967.271 -16.6095" fill="#D3FFF9"/>
<path d="M759.069 186.813L755.282 187.991L754.768 188.151" fill="#D3FFF9"/>
<path d="M760.471 186.313L760.217 186.405L760.213 186.409L759.454 186.669L759.404 186.689L759.085 186.8L758.356 187.053L756.001 187.882" fill="#D3FFF9"/>
<path d="M760.205 186.41L759.503 186.537Z" fill="#D3FFF9"/>
<path d="M762.839 185.389L760.476 186.302L760.269 186.386L760.265 186.383L759.77 186.578L759.697 186.605L759.636 186.628L759.394 186.724L759.34 186.747L759.329 186.751L759.302 186.762L757.752 187.361" fill="#D3FFF9"/>
<path d="M766.217 183.959L762.852 185.39L761.647 185.896L761.429 185.992L760.665 186.318L760.657 186.318L760.285 186.476L760.216 186.506L760.205 186.51L760.185 186.522L760.043 186.579" fill="#D3FFF9"/>
<path d="M515.215 709.55L525.413 718.206L536.54 725.918L548.584 732.667L561.525 738.434L575.353 743.184L590.032 746.921L605.544 749.626L621.855 751.302L638.94 751.928L656.762 751.51L675.293 750.028L694.512 747.485L714.371 743.871L734.84 739.194L755.874 733.461L777.433 726.689L799.467 718.882L821.939 710.053L844.799 700.216L868.011 689.38L891.515 677.563L915.277 664.791L939.237 651.082L963.348 636.479L987.554 621.005L1011.81 604.691L1036.06 587.571L1060.25 569.673L1084.33 551.026L1108.25 531.677L1131.96 511.672L1155.41 491.053L1178.55 469.863L1201.32 448.15L1223.68 425.958L1245.57 403.333L1266.95 380.32L1287.77 356.973L1307.99 333.346L1327.58 309.481L1346.49 285.44L1364.67 261.272L1382.09 237.027L1398.72 212.76L1414.5 188.519L1429.41 164.359L1443.44 140.329L1456.56 116.475L1468.73 92.856L1479.94 69.5128L1490.17 46.5L1499.39 23.8669L1507.57 1.65171L1514.72 -20.0951L1520.84 -41.3316L1525.9 -62.0236L1529.91 -82.1283L1532.87 -101.604L1534.76 -120.415L1535.59 -138.529L1535.36 -155.898L1534.07 -172.504L1531.74 -188.323L1528.38 -203.313L1524.01 -217.475L1518.63 -230.762L1512.27 -243.162L1504.93 -254.653L1496.63 -265.208M515.215 709.55L510.722 705.165L506.333 700.668L497.09 691.111L492.819 686.526L488.653 681.837L484.601 677.049L480.665 672.161L472.431 661.771L468.621 656.81L464.938 651.761L461.369 646.619L457.928 641.398L450.726 630.236L447.426 624.965L444.257 619.609L441.215 614.18L438.303 608.681L432.156 596.833L429.397 591.305L426.773 585.711L424.283 580.051L421.935 574.335L416.847 561.873L414.657 556.159L412.608 550.389L410.701 544.569L406.626 531.524L404.884 525.73L403.28 519.891L401.822 514.013L398.753 500.453L397.456 494.622L396.313 488.759L395.311 482.869L393.209 468.873L392.369 463.045L391.678 457.205L391.133 451.342L389.974 436.985L389.587 431.211L389.349 425.433L389.088 410.676L389 405.002L389.065 399.327L389.28 393.656L389.89 378.674L390.247 373.13L390.757 367.593L392.2 352.323L392.844 346.936L395.123 331.289L395.895 326.06L396.815 320.85L399.866 305.023L400.902 299.989L405.874 279.025L407.167 274.21L411.683 258.015L413.076 253.399L418.298 237.004L419.783 232.596L425.687 216.048L427.249 211.854L433.81 195.187L435.44 191.224L442.627 174.468L444.326 170.743L452.111 153.941L460.56 136.937L462.214 133.641L471.203 116.656L472.891 113.617L482.387 96.693L492.474 79.6613L494.07 77.0831L504.606 60.1704L515.691 43.2158L527.309 26.2493L528.64 24.3349L540.626 7.57586L553.092 -9.14112L566.014 -25.7774L579.366 -42.3216L580.229 -43.3692L593.831 -59.5872L607.812 -75.6479L622.15 -91.5283L636.822 -107.198L651.801 -122.622L667.063 -137.785L682.583 -152.66L698.326 -167.213L714.271 -181.432L730.386 -195.283L746.646 -208.742L747.766 -209.663L764.341 -222.862L781.008 -235.615L797.733 -247.897L814.496 -259.695L816.487 -261.087L833.442 -272.51L850.378 -283.398L852.841 -284.926L869.91 -295.381L886.896 -305.253L889.82 -306.88L906.882 -316.253L923.791 -325.005L927.159 -326.693L944.08 -334.888L947.694 -336.538L964.583 -344.15L981.242 -351.079L985.271 -352.745L1001.83 -359.04L1006.09 -360.633L1022.51 -366.273L1026.98 -367.777L1043.24 -372.727L1047.91 -374.142L1052.64 -375.412L1068.83 -379.683L1073.74 -380.849L1089.68 -384.363L1094.78 -385.415L1099.9 -386.32L1115.68 -389.083L1120.96 -389.862L1136.41 -391.818L1141.85 -392.47L1147.3 -392.973L1162.5 -394.113L1168.09 -394.477L1173.68 -394.692L1188.58 -394.984L1194.3 -395.053L1200.02 -394.972L1220.37 -394.151L1226.18 -393.764L1231.98 -393.234L1246.2 -391.726L1252.07 -391.036L1257.94 -390.192L1263.77 -389.205L1277.59 -386.743L1283.49 -385.595L1289.35 -384.299L1295.18 -382.856L1308.53 -379.399L1314.4 -377.791L1320.22 -376.041L1326 -374.154L1338.81 -369.688L1344.6 -367.631L1350.34 -365.437L1356.03 -363.104L1361.66 -360.637L1373.91 -355.123L1379.52 -352.495L1385.07 -349.733L1390.55 -346.84L1395.95 -343.813L1407.57 -337.255L1412.93 -334.082L1418.23 -330.779L1423.43 -327.353L1428.56 -323.8L1439.45 -316.207L1444.52 -312.516L1449.48 -308.706L1454.36 -304.781L1459.14 -300.741L1469.24 -292.119L1473.94 -287.957L1478.53 -283.686L1483.02 -279.304L1487.41 -274.819L1496.63 -265.208M515.215 709.55L519.808 713.821L524.5 717.984L534.706 726.647L539.498 730.695L544.382 734.628L549.351 738.438L554.412 742.125L570.672 753.405L575.886 756.839L581.185 760.142L586.552 763.315L598.531 770.045L603.948 773.076L609.439 775.973L614.99 778.739L620.604 781.36L633.365 787.069L639.009 789.544L644.699 791.872L650.45 794.064L656.24 796.109L669.699 800.782L675.493 802.67L681.329 804.407L687.195 806L701.314 809.652L707.158 811.083L713.032 812.368L718.929 813.501L733.628 816.144L739.479 817.115L745.345 817.932L751.227 818.604L766.425 820.25L772.23 820.76L778.042 821.117L793.75 821.8L799.467 821.999L805.184 822.053L826.95 821.681L832.536 821.427L854.548 819.835L859.985 819.286L876.874 817.184L882.154 816.501L887.41 815.672L904.568 812.687L909.648 811.728L914.697 810.623L932.059 806.798L936.912 805.581L954.569 800.916L959.223 799.592L977.13 794.117L981.561 792.702L999.674 786.436L1003.88 784.936L1022.14 777.915L1026.1 776.337L1044.48 768.583L1048.18 766.949L1066.62 758.493L1070.07 756.808L1088.53 747.677L1107.15 737.805L1110.13 736.19L1128.69 725.711L1147.35 714.542L1149.83 713.034L1168.34 701.332L1186.86 688.985L1188.82 687.631L1207.11 674.824L1225.35 661.426L1243.48 647.475L1261.48 632.991L1262.49 632.155L1280.11 617.353L1297.52 602.086L1314.69 586.397L1331.58 570.314L1348.15 553.865L1364.36 537.087L1380.2 520.017L1395.62 502.682L1410.58 485.129L1411.35 484.201L1426.01 466.252L1440.16 448.15L1453.77 429.941L1466.81 411.662L1468.1 409.782L1480.68 391.251L1492.62 372.727L1503.91 354.241L1505.49 351.64L1516.21 333.027L1527.92 311.438L1537.32 292.902L1538.97 289.53L1547.72 270.994L1549.32 267.361L1557.38 248.872L1564.64 230.669L1566.26 226.591L1572.76 208.52L1574.3 204.211L1580.03 186.324L1581.48 181.785L1582.78 177.2L1587.76 159.378L1588.96 154.586L1593.1 137.044L1594.19 132.057L1597.49 114.841L1598.45 109.669L1599.27 104.47L1601.72 87.4921L1602.41 82.1285L1602.94 76.7416L1604.49 60.067L1604.89 54.5417L1605.14 48.994L1605.77 32.6914L1605.87 27.0248L1605.81 21.3537L1605.5 5.48102L1605.29 -0.297599L1604.92 -6.07175L1603.64 -21.4498L1603.12 -27.3045L1602.45 -33.1519L1601.63 -38.9912L1599.36 -53.8894L1598.37 -59.7868L1597.24 -65.6572L1595.96 -71.5006L1592.68 -85.8577L1591.23 -91.7395L1589.64 -97.5828L1587.9 -103.396L1583.61 -117.123L1581.71 -122.94L1579.67 -128.718L1577.48 -134.443L1572.18 -147.473L1569.84 -153.186L1567.35 -158.848L1564.73 -164.447L1561.97 -169.991L1555.64 -182.276L1552.74 -187.774L1549.69 -193.211L1546.52 -198.567L1543.22 -203.854L1535.88 -215.315L1532.44 -220.536L1528.88 -225.674L1525.18 -230.727L1521.37 -235.696L1513.07 -246.258L1509.13 -251.139L1505.08 -255.923L1500.92 -260.62L1496.63 -265.208M1439.44 -316.199L1449.46 -307.647L1458.57 -298.143L1466.76 -287.703L1473.99 -276.338L1480.25 -264.061L1485.52 -250.901L1489.8 -236.881L1493.07 -222.025L1495.32 -206.348L1496.53 -189.892L1496.7 -172.669L1495.81 -154.712L1493.86 -136.058L1490.86 -116.74L1486.81 -96.7924L1481.71 -76.2656L1475.58 -55.1902L1468.41 -33.6121L1460.22 -11.5658L1451 10.9063L1440.78 33.7467L1429.58 56.9208L1417.44 80.379L1404.35 104.063L1390.35 127.932L1375.49 151.931L1359.76 176.011L1343.19 200.117L1325.84 224.209L1307.73 248.227L1288.91 272.118L1269.42 295.838L1249.29 319.33L1228.57 342.543L1207.3 365.422L1185.52 387.924L1163.29 409.997L1140.65 431.594L1117.64 452.674L1094.33 473.193L1070.76 493.106L1046.99 512.363L1023.05 530.925L999.014 548.755L974.919 565.813L950.824 582.066L926.775 597.49L902.83 612.05L879.034 625.717L855.438 638.463L832.099 650.261L809.059 661.084L786.36 670.922L764.057 679.75L742.187 687.57L720.797 694.365L699.925 700.12L679.621 704.831L659.919 708.488L640.858 711.082L622.48 712.616L604.807 713.1L587.876 712.543L571.707 710.947L556.341 708.319L541.792 704.674L528.102 700.016L515.287 694.353L503.37 687.708L492.363 680.107L482.279 671.566L473.125 662.113L464.93 651.768M1373.9 -355.113L1385.35 -348.656L1395.95 -341.247L1405.7 -332.902L1414.56 -323.628L1422.51 -313.434L1429.51 -302.33L1435.58 -290.337L1440.67 -277.475L1444.78 -263.77L1447.92 -249.244L1450.04 -233.924L1451.15 -217.829L1451.24 -200.989L1450.29 -183.424L1448.31 -165.177L1445.29 -146.276L1441.25 -126.766L1436.19 -106.685L1430.11 -86.0659L1423.02 -64.9481L1414.92 -43.3742L1405.83 -21.3852L1395.76 0.975319L1384.73 23.6586L1372.77 46.6142L1359.9 69.8038L1346.14 93.1695L1331.53 116.666L1316.07 140.239L1299.81 163.847L1282.77 187.439L1265 210.959L1246.53 234.363L1227.4 257.599L1207.66 280.612L1187.34 303.356L1166.48 325.779L1145.14 347.832L1123.34 369.468L1101.15 390.647L1078.61 411.316L1055.77 431.44L1032.68 450.969L1009.39 469.865L985.947 488.082L962.404 505.586L938.812 522.333L915.216 538.302L891.669 553.454L868.227 567.765L844.934 581.205L821.836 593.751L798.988 605.365L776.439 616.028L754.224 625.727L732.401 634.444L710.999 642.172L690.065 648.894L669.65 654.607L649.783 659.295L630.507 662.948L611.868 665.565L593.893 667.141L576.608 667.69L560.044 667.218L544.241 665.733L529.212 663.236L514.997 659.74L501.614 655.251L489.095 649.776L477.45 643.342L466.696 635.964L456.846 627.665L447.922 618.472L439.922 608.4L432.866 597.477L426.766 585.721M1289.36 -384.298L1302.63 -380.86L1315.16 -376.486L1326.93 -371.188L1337.92 -364.964L1348.09 -357.828L1357.44 -349.786L1365.92 -340.85L1373.52 -331.02L1380.22 -320.312L1385.99 -308.748L1390.83 -296.347L1394.72 -283.13L1397.66 -269.122L1399.63 -254.342L1400.63 -238.819L1400.63 -222.573L1399.63 -205.63L1397.63 -188.031L1394.64 -169.802L1390.66 -150.983L1385.7 -131.611L1379.75 -111.721L1372.84 -91.3518L1364.95 -70.5368L1356.1 -49.327L1346.32 -27.7607L1335.61 -5.87531L1324 16.2703L1311.53 38.6388L1298.19 61.18L1284.03 83.8515L1269.07 106.596L1253.33 129.379L1236.84 152.143L1219.65 174.845L1201.79 197.432L1183.3 219.854L1174.07 230.605L1174.06 230.62L1174.05 230.628L1164.22 242.069L1144.59 264.027L1124.44 285.678L1103.82 306.976L1082.77 327.871L1061.34 348.329L1039.58 368.3L1017.52 387.744L995.236 406.625L972.756 424.892L950.135 442.511L927.421 459.438L904.653 475.645L881.886 491.1L859.168 505.775L836.55 519.645L814.078 532.671L791.798 544.838L769.752 556.11L747.997 566.47L726.573 575.893L705.516 584.38L684.875 591.907L664.682 598.472L644.987 604.062L625.826 608.667L607.233 612.273L589.25 614.878L571.912 616.486L555.241 617.096L539.268 616.724L524.021 615.366L509.53 613.037L495.817 609.745L482.914 605.49L470.839 600.283L459.613 594.144L449.242 587.096L439.754 579.158L431.144 570.349L423.44 560.695L416.641 550.213L410.771 538.925L405.833 526.843L401.827 514.013M1214.56 -394.396L1228.47 -392.922L1241.73 -390.555L1254.31 -387.29L1266.18 -383.135L1277.32 -378.089L1287.71 -372.173L1297.32 -365.382L1306.14 -357.732L1314.14 -349.226L1321.29 -339.875L1327.58 -329.689L1332.99 -318.685L1337.52 -306.887L1341.14 -294.313L1343.85 -280.988L1345.65 -266.934L1346.51 -252.17L1346.42 -236.719L1345.39 -220.608L1343.41 -203.873L1340.48 -186.542L1336.63 -168.647L1331.82 -150.231L1326.1 -131.323L1319.44 -111.959L1311.87 -92.1761L1303.39 -72.014L1294.02 -51.5137L1283.77 -30.7182L1272.68 -9.66595L1260.76 11.5935L1248.03 33.0181L1234.52 54.5616L1220.25 76.1859L1205.24 97.8329L1189.53 119.472L1173.15 141.051L1156.14 162.521L1138.54 183.842L1120.37 204.964L1101.68 225.844L1082.51 246.432L1062.9 266.686L1042.87 286.565L1022.49 306.025L1001.8 325.032L980.832 343.541L959.646 361.513L938.275 378.909L916.769 395.687L895.176 411.817L873.533 427.267L851.897 442.005L830.307 456.005L808.81 469.238L787.451 481.68L766.275 493.302L745.323 504.08L724.646 513.99L704.281 523.022L684.272 531.16L664.647 538.392L645.455 544.707L626.731 550.102L608.51 554.557L590.834 558.067L573.738 560.63L557.247 562.234L541.393 562.901L526.204 562.629L511.701 561.424L497.919 559.291L484.874 556.245L472.596 552.278L461.109 547.405L450.431 541.646L440.57 535.016L431.535 527.538L423.347 519.227L416.015 510.115L409.55 500.204L403.964 489.523L399.264 478.093L395.457 465.938L392.542 453.085L390.508 439.572L389.365 425.422M1094.78 -385.423L1110.42 -388.155L1125.59 -390.073L1140.25 -391.174L1154.39 -391.446L1167.98 -390.89L1180.98 -389.501L1193.36 -387.276L1205.09 -384.203L1216.16 -380.293L1226.54 -375.554L1236.21 -369.995L1245.16 -363.618L1253.35 -356.432L1260.78 -348.447L1267.41 -339.677L1273.22 -330.115L1278.22 -319.795L1282.37 -308.725L1285.69 -296.939L1288.15 -284.443L1289.74 -271.267L1290.47 -257.428L1290.31 -242.951L1289.26 -227.854L1287.33 -212.176L1284.51 -195.939L1280.82 -179.18L1276.25 -161.93L1270.82 -144.227L1264.51 -126.098L1257.36 -107.578L1249.35 -88.7045L1240.52 -69.5131L1230.87 -50.0493L1220.43 -30.3472L1209.22 -10.4574L1197.25 9.59369L1184.56 29.756L1171.16 49.9912L1157.07 70.2493L1142.33 90.4962L1126.97 110.689L1111.03 130.782L1094.53 150.734L1077.51 170.501L1060 190.049L1042.05 209.322L1023.67 228.287L1004.93 246.895L985.847 265.124L966.471 282.926L946.849 300.269L927.017 317.108L907.02 333.415L886.896 349.149L866.687 364.278L846.437 378.773L826.19 392.605L805.985 405.749L785.869 418.185L765.879 429.879L746.063 440.818L726.456 450.962L707.104 460.301L688.039 468.823L669.308 476.504L650.933 483.345L632.962 489.33L615.431 494.452L598.369 498.7L581.814 502.065L565.795 504.539L550.348 506.128L535.492 506.834L521.254 506.661L507.664 505.61L494.738 503.695L482.506 500.917L470.992 497.284L460.222 492.799L450.197 487.477L440.946 481.342L432.471 474.409L424.782 466.697L417.894 458.222L411.821 449.002L406.572 439.049L402.156 428.394L398.576 417.057L395.837 405.063L393.918 392.44L392.84 379.214L392.591 365.421L393.17 351.075L394.578 336.208L396.815 320.842M944.088 -334.903L960.798 -342.435L977.272 -349.287L993.479 -355.457L1009.39 -360.917L1024.97 -365.659L1040.19 -369.669L1055.02 -372.93L1069.44 -375.443L1083.42 -377.2L1096.92 -378.198L1109.94 -378.435L1122.44 -377.906L1134.39 -376.601L1145.77 -374.522L1156.55 -371.667L1166.7 -368.038L1176.22 -363.641L1185.09 -358.488L1193.28 -352.579L1200.77 -345.93L1207.55 -338.54L1213.59 -330.422L1218.88 -321.586L1223.41 -312.044L1227.17 -301.819L1230.15 -290.926L1232.35 -279.385L1233.74 -267.222L1234.33 -254.446L1234.12 -241.09L1233.08 -227.159L1231.22 -212.698L1228.55 -197.727L1225.08 -182.276L1220.8 -166.376L1215.73 -150.055L1209.85 -133.349L1203.21 -116.287L1195.77 -98.899L1187.57 -81.2265L1178.64 -63.297L1168.97 -45.1531L1158.6 -26.8363L1147.54 -8.36966L1135.81 10.1925L1123.44 28.8165L1110.43 47.4747L1096.83 66.11L1082.66 84.6993L1067.96 103.2L1052.74 121.571L1037.06 139.773L1020.93 157.767L1004.38 175.516L987.459 192.977L970.19 210.124L952.618 226.914L935.01 243.109L934.78 243.316L916.713 259.296L898.457 274.82L880.045 289.856L861.513 304.367L842.912 318.325L824.269 331.704L805.63 344.473L787.026 356.616L768.505 368.107L750.1 378.923L731.849 389.041L713.789 398.437L695.963 407.093L678.406 414.997L661.148 422.133L644.216 428.498L627.657 434.077L611.496 438.865L595.766 442.848L580.503 446.017L565.731 448.373L551.481 449.908L537.773 450.633L524.635 450.548L512.089 449.658L500.153 447.966L488.857 445.48L478.222 442.203L468.262 438.144L458.999 433.31L450.44 427.72L442.597 421.397L435.48 414.348L429.107 406.594L423.478 398.149L418.614 389.033L414.516 379.257L411.189 368.848L408.634 357.829L406.85 346.23L405.829 334.067L405.58 321.372L406.102 308.165L407.387 294.472L409.44 280.31L412.248 265.723L415.797 250.725L420.083 235.358L425.086 219.643L430.807 203.617L437.222 187.303L444.335 170.728M780.218 176.946L774.236 180.111L773.492 180.502L766.206 184.113L762.093 186.008L762.085 186.008L761.87 186.108L761.859 186.112L761.797 186.143L761.667 186.204L761.602 186.231L759.02 187.424L751.941 190.428L744.992 193.126L738.182 195.516L731.521 197.58L725.029 199.33L718.714 200.749L712.591 201.839L706.674 202.599L700.965 203.028L695.479 203.128L690.226 202.902L685.215 202.349L680.458 201.467L675.965 200.258L671.741 198.727L667.796 196.878L664.14 194.71L660.767 192.235L657.69 189.458L654.916 186.384L652.449 183.012L650.293 179.359L648.455 175.426L646.936 171.221L645.735 166.759L644.852 162.04L644.296 157.079L644.058 151.884L644.139 146.47L644.549 140.842L645.282 135.006L646.333 128.982L647.703 122.778L649.384 116.401L651.371 109.879L653.665 103.211L656.263 96.4078L659.152 89.4902L662.336 82.4689L665.805 75.3477L669.553 68.154L673.571 60.8908L677.849 53.5816L682.376 46.2305L687.157 38.8562L692.167 31.4665L697.412 24.0807L702.876 16.714L708.543 9.37427L714.413 2.07665L720.464 -5.16333L726.687 -12.3382L733.079 -19.4285L739.625 -26.4268L746.305 -33.3139L753.119 -40.0821L760.044 -46.7157L767.077 -53.2038L774.198 -59.5421L781.396 -65.7041L788.659 -71.6932L795.968 -77.4907L803.315 -83.0807L810.69 -88.4599L818.075 -93.6204L825.457 -98.5469L832.82 -103.239L840.152 -107.679L847.446 -111.864L854.682 -115.778L861.842 -119.423L868.921 -122.78L875.9 -125.853L882.775 -128.639L889.524 -131.121L896.139 -133.308L902.608 -135.181L908.915 -136.746L915.046 -137.989L920.993 -138.918L926.752 -139.528L932.3 -139.812L937.634 -139.781L942.74 -139.424L947.609 -138.745L952.229 -137.74L956.591 -136.416L960.689 -134.774L964.514 -132.805L968.059 -130.534L971.317 -127.952L974.286 -125.067L976.953 -121.878L979.309 -118.394L981.354 -114.623L983.076 -110.567L984.485 -106.236L985.567 -101.639L986.33 -96.7857L986.764 -91.6867L986.867 -86.3422L986.645 -80.7711L986.085 -74.9776L985.198 -68.973L983.978 -62.7727L982.44 -56.3845L980.571 -49.8273L978.388 -43.1092L975.886 -36.2413L973.074 -29.2392L969.966 -22.1489L969.947 -22.1143L969.909 -22.0299L969.893 -21.9914L969.713 -21.6192L966.521 -14.882L965.051 -11.9852L964.971 -11.8278L962.803 -7.55746L959.768 -1.95965M970.881 -25.5729L970.762 -25.2392L970.704 -25.0818L970.566 -24.7057L970.52 -24.5753L970.517 -24.5639L970.413 -24.2761L970.401 -24.2492L969.83 -22.68M971.275 -26.9165L970.873 -25.6696L970.623 -24.9139L970.611 -24.8791L970.569 -24.7372L970.423 -24.292L970.412 -24.2576M971.395 -27.7162L970.597 -24.9229L970.578 -24.8577M971.341 -28.046L970.539 -24.7194M759.441 186.673L759.042 186.765L754.154 187.64L749.423 188.25L744.861 188.599L740.476 188.688L736.27 188.511L732.261 188.078L728.451 187.383L724.848 186.428L721.46 185.212L718.295 183.742L715.356 182.023L712.647 180.059L710.169 177.849L707.932 175.405L705.941 172.723L704.199 169.815L702.706 166.687L701.467 163.338L700.485 159.778L699.756 156.017L699.284 152.062L699.073 147.922L699.115 143.605L699.418 139.113L699.978 134.455L700.796 129.647L701.866 124.694L703.186 119.606L704.755 114.392L706.566 109.067L708.619 103.638L710.909 98.1089L713.438 92.4955L716.192 86.8094L719.174 81.0581L722.37 75.2531L725.773 69.4097L729.38 63.5316L733.189 57.6347L737.184 51.7296L741.37 45.8248L745.724 39.9356L750.252 34.065L754.936 28.2294L759.767 22.4396L764.735 16.7037L769.842 11.0368L775.068 5.44265L780.413 -0.0631264L785.857 -5.46916L791.397 -10.7714L797.014 -15.9588L802.708 -21.0157L808.464 -25.9422L814.265 -30.7228L820.112 -35.3499L825.99 -39.8084L831.887 -44.1018L837.788 -48.2149L843.689 -52.1437L849.575 -55.8806L855.441 -59.4143L861.269 -62.7485L867.051 -65.8601L872.776 -68.7529L878.431 -71.4235L884.01 -73.8637L889.5 -76.0621L894.891 -78.0304L900.174 -79.7532L905.342 -81.2302L910.376 -82.4582L915.272 -83.4325L920.018 -84.1501L924.607 -84.6106L929.038 -84.8138L933.29 -84.7603L937.36 -84.457L941.243 -83.8892L944.923 -83.0643L948.399 -81.9824L951.664 -80.6433L954.71 -79.0548L957.53 -77.217L960.124 -75.1297L962.48 -72.8047L964.598 -70.2419L966.47 -67.4408L968.093 -64.4136L969.463 -61.1563L970.575 -57.6879L971.431 -54.0006L972.033 -50.1141L972.371 -46.0315L972.448 -41.7574L972.263 -37.3067L971.815 -32.6757L971.101 -27.8797L970.391 -24.2769M970.243 -23.7231L970.151 -23.4852L968.808 -20.1548M1582.77 177.215L1576.93 195.439L1570.23 214.037L1562.68 232.963L1554.3 252.182L1545.1 271.661L1535.11 291.348L1524.34 311.207L1512.81 331.204L1500.54 351.286L1487.56 371.421L1473.88 391.565L1459.54 411.669L1444.57 431.697L1429 451.61L1412.86 471.362L1396.19 490.91L1379.02 510.213L1361.38 529.232L1343.31 547.917L1324.85 566.238L1306.05 584.156L1286.92 601.632L1267.53 618.633L1247.91 635.12L1228.11 651.058L1208.16 666.417L1188.11 681.154L1167.99 695.246L1147.85 708.663L1127.74 721.394L1107.69 733.399L1087.75 744.656L1067.96 755.146L1048.36 764.85L1028.98 773.739L1009.88 781.8L991.084 789.025L972.633 795.406L954.553 800.93M1605.12 49.0032L1603.55 65.9193L1601.03 83.4153L1597.58 101.448L1593.19 119.991L1587.87 139.006L1581.63 158.455L1574.47 178.307L1566.4 198.515L1557.44 219.045L1547.6 239.849L1536.9 260.893L1525.38 282.118L1513.04 303.497L1499.91 324.972L1486.01 346.504L1471.37 368.047L1456.02 389.556L1439.99 410.988L1423.32 432.302L1406.04 453.439L1388.19 474.361L1369.8 495.026L1350.92 515.38L1331.57 535.389L1311.81 554.998L1291.67 574.186L1271.2 592.898L1250.45 611.1L1229.45 628.753L1208.25 645.823L1186.91 662.264L1165.45 678.04L1143.93 693.127L1122.39 707.495L1100.88 721.116L1079.45 733.966L1058.13 746.013L1036.98 757.243L1016.03 767.622L995.342 777.126L974.938 785.751L954.868 793.474L935.17 800.296L915.882 806.2L897.044 811.181L878.696 815.225L860.874 818.329L843.605 820.481L826.934 821.69M1598.36 -59.7866L1600.65 -44.8075L1601.96 -29.0923L1602.29 -12.6745L1601.62 4.42574L1599.95 22.1749L1597.29 40.534L1593.65 59.4686L1589.02 78.9478L1583.41 98.9258L1576.83 119.364L1569.29 140.233L1560.77 161.485L1551.32 183.078L1540.94 204.963L1529.66 227.102L1517.51 249.447L1504.5 271.95L1490.65 294.564L1475.99 317.239L1460.55 339.93L1444.36 362.59L1427.45 385.169L1409.87 407.623L1391.65 429.899L1372.82 451.953L1353.44 473.734L1333.52 495.189L1313.13 516.284L1292.29 536.968L1271.06 557.192L1249.48 576.928L1227.61 596.12L1205.48 614.74L1183.14 632.735L1160.65 650.077L1138.04 666.717L1115.37 682.624L1092.69 697.779L1070.04 712.144L1047.47 725.692L1025.03 738.407L1002.77 750.244L980.735 761.19L958.965 771.212L937.51 780.305L916.407 788.454L895.7 795.648L875.434 801.879L855.644 807.128L836.376 811.395L817.66 814.671L799.543 816.942L782.051 818.22L765.211 818.508L749.058 817.809L733.619 816.144M1577.47 -134.428L1581.8 -120.566L1585.14 -105.89L1587.49 -90.4238L1588.83 -74.1983L1589.15 -57.2318L1588.43 -39.5559L1586.68 -21.2007L1583.9 -2.20839L1580.1 17.3858L1575.28 37.5404L1569.43 58.2247L1562.58 79.3884L1554.72 101.005L1545.87 123.02L1536.03 145.4L1525.24 168.087L1513.51 191.039L1500.87 214.209L1487.34 237.541L1472.94 260.999L1457.71 284.522L1441.66 308.069L1424.83 331.584L1407.26 355.023L1388.98 378.332L1370.05 401.46L1350.49 424.358L1330.35 446.976L1309.65 469.264L1288.47 491.172L1266.82 512.658L1244.77 533.668L1222.36 554.172L1199.65 574.115L1176.67 593.464L1153.48 612.165L1130.13 630.186L1106.67 647.479L1083.15 664.019L1059.61 679.769L1036.11 694.702L1012.7 708.794L989.437 722.008L966.35 734.32L943.506 745.7L920.946 756.129L898.712 765.586L876.854 774.069L855.41 781.555L834.423 788.039L813.938 793.514L793.994 797.965L774.63 801.384L755.891 803.762L737.808 805.109L720.405 805.431L703.718 804.729L687.773 803.018L672.602 800.302L658.229 796.588L644.682 791.887M1543.22 -203.855L1549.58 -191.485L1554.97 -178.24L1559.36 -164.136L1562.74 -149.199L1565.1 -133.453L1566.43 -116.928L1566.72 -99.6396L1565.95 -81.6258L1564.12 -62.91L1561.24 -43.5455L1557.31 -23.56L1552.34 -2.99089L1546.33 18.1149L1539.29 39.7238L1531.21 61.7854L1522.12 84.2689L1512.03 107.125L1500.95 130.303L1488.92 153.757L1475.96 177.434L1462.08 201.283L1447.33 225.263L1431.71 249.316L1415.26 273.392L1398.01 297.445L1380.01 321.417L1361.29 345.259L1341.9 368.924L1321.86 392.355L1301.24 415.499L1280.05 438.312L1258.36 460.735L1236.2 482.731L1213.63 504.244L1190.69 525.239L1167.45 545.666L1143.94 565.479L1120.21 584.636L1096.33 603.095L1072.33 620.817L1048.28 637.764L1024.21 653.905L1000.19 669.218L976.261 683.66L952.477 697.215L928.889 709.838L905.55 721.513L882.502 732.214L859.796 741.929L837.474 750.638L815.585 758.331L794.16 765L773.257 770.632L752.911 775.224L733.163 778.758L714.055 781.229L695.62 782.645L677.886 783.005L660.885 782.334L644.652 780.619L629.205 777.88L614.575 774.124L600.805 769.354L587.902 763.588L575.889 756.839M772.087 181.177L771.945 181.127L769.459 179.983L767.145 178.644L765.012 177.11L763.063 175.391L761.298 173.48L759.721 171.389L758.34 169.125L757.158 166.678L756.172 164.065L755.382 161.287L754.795 158.352L754.407 155.263L754.219 152.029L754.234 148.652L754.453 145.142L754.875 141.504L755.497 137.744L756.314 133.873L757.331 129.894L758.539 125.816L759.94 121.653L761.528 117.402L763.304 113.078L765.269 108.688L767.41 104.238L769.727 99.7409L772.214 95.1981L774.868 90.6248L777.681 86.0245L780.647 81.4087L783.766 76.7854L787.031 72.1696L790.431 67.5578L793.964 62.9653L797.625 58.3994L801.4 53.8643L805.287 49.3791L809.277 44.944L813.367 40.5699L817.541 36.2651L821.8 32.0369L826.132 27.8894L830.529 23.8377L834.983 19.8819L839.488 16.0298L844.027 12.2966L848.6 8.68231L853.2 5.19482L857.816 1.84522L862.436 -1.36243L867.051 -4.42782L871.659 -7.33996L876.248 -10.0948L880.81 -12.6847L885.334 -15.1134L889.815 -17.3616L894.239 -19.4375L898.601 -21.329L902.894 -23.0364L907.115 -24.5556L911.247 -25.8872L915.283 -27.0304L919.224 -27.9704L923.049 -28.7108L926.763 -29.2558L930.35 -29.5971L933.807 -29.7392L937.13 -29.6777L940.311 -29.4208L943.342 -28.9602L946.219 -28.2928L948.932 -27.4296L951.48 -26.3629L953.855 -25.1005L956.057 -23.6502L958.079 -22.0042L959.917 -20.1664L961.567 -18.1481L963.028 -15.942L964.291 -13.5594L965.008 -11.8444M807.742 159.893L807.804 158.796L808.114 155.984L808.583 153.075L809.2 150.079L809.975 147.002L810.896 143.848L811.971 140.625L813.187 137.337L814.549 133.995L816.053 130.596L817.703 127.15L819.487 123.67L821.398 120.156L823.443 116.614L825.61 113.058L827.897 109.489L830.303 105.91L832.82 102.334L835.448 98.7694L838.176 95.2127L841 91.6828L843.916 88.1761L846.92 84.7038L850.005 81.2737L853.166 77.8896L856.393 74.5631L859.689 71.2902L863.038 68.0867L866.434 64.952L869.883 61.894L873.363 58.9205L876.877 56.0353L880.419 53.2459L883.975 50.5564L887.544 47.9704L891.123 45.4957L894.696 43.1282L898.26 40.8839L901.813 38.7659L905.339 36.7668L908.842 34.8985L912.306 33.1681L915.733 31.5759L919.109 30.1254L922.432 28.8133L925.697 27.6506L928.893 26.634L932.016 25.7669L935.062 25.0532L938.02 24.4893L940.89 24.0826L943.664 23.833L943.71 23.8331M774.257 180.1L769.852 182.279L762.854 185.502M844.066 132.317L836.883 138.211L828.738 144.622L820.562 150.795L812.823 156.385L812.362 156.715M812.802 156.392L807.737 159.892L806.306 160.878L798.329 166.138L790.375 171.13M792.321 169.908L785.349 174.056L777.706 178.361M1468.1 409.791L1454.91 428.285L1441.15 446.705L1426.83 465.018L1411.99 483.177L1396.67 501.149L1380.88 518.898L1364.67 536.378L1348.06 553.556L1331.09 570.395L1313.8 586.863L1296.22 602.931L1278.4 618.559L1260.36 633.714L1242.15 648.371L1223.81 662.486L1205.36 676.037L1186.85 688.994M920.431 54.9959L919.729 55.8363L913.544 63.2797L906.454 71.4827L899.168 79.5898L891.697 87.5895L884.066 95.4664L876.277 103.201L868.354 110.779L860.312 118.184L852.171 125.405L844.052 132.326L843.941 132.422M944.028 23.4345L943.756 23.8221L942.804 25.1801L938.265 31.6376L932.245 39.8368L925.98 48.0052L919.73 55.8285M953.026 9.56781L952.451 10.4733L947.939 17.533L943.722 23.8291L942.813 25.1833M960.509 -3.22762L959.773 -1.95371L956.101 4.4423L952.444 10.4776M968.082 -18.3677L965.055 -11.9795M969.342 -21.3288L968.824 -20.1585L967.271 -16.6095M759.069 186.813L755.282 187.991L754.768 188.151M760.471 186.313L760.217 186.405L760.213 186.409L759.454 186.669L759.404 186.689L759.085 186.8L758.356 187.053L756.001 187.882M760.205 186.41L759.503 186.537M762.839 185.389L760.476 186.302L760.269 186.386L760.265 186.383L759.77 186.578L759.697 186.605L759.636 186.628L759.394 186.724L759.34 186.747L759.329 186.751L759.302 186.762L757.752 187.361M766.217 183.959L762.852 185.39L761.647 185.896L761.429 185.992L760.665 186.318L760.657 186.318L760.285 186.476L760.216 186.506L760.205 186.51L760.185 186.522L760.043 186.579M1179.54 -231.155L1178.54 -218.517L1176.8 -205.395L1174.31 -191.817L1171.11 -177.805L1167.17 -163.39L1162.52 -148.6L1157.15 -133.459L1151.07 -118.001L1144.29 -102.251L1136.82 -86.244L1128.68 -70.0104L1119.89 -53.5851L1110.46 -36.9949L1100.41 -20.2856L1089.77 -3.48423L1078.54 13.3707L1066.74 30.2526L1054.41 47.1226L1041.56 63.9433L1028.23 80.6833L1014.45 97.3041L1000.25 113.776L985.635 130.059L970.652 146.123L955.336 161.931L939.705 177.447L923.801 192.652L907.66 207.505L891.308 221.977L874.783 236.039L858.123 249.659L841.357 262.812L824.525 275.469L807.654 287.597L790.784 299.188L773.948 310.207L757.181 320.644L740.522 330.473L723.997 339.67L707.652 348.219L691.511 356.103L675.604 363.309L659.969 369.82L644.633 375.64L629.624 380.751L614.975 385.14L600.713 388.812L586.87 391.743L573.468 393.942L560.538 395.4L548.1 396.121L536.171 396.109L524.772 395.369L513.933 393.907L503.666 391.72L493.997 388.812L484.938 385.194L476.509 380.877L468.713 375.874L461.568 370.203L455.081 363.869L449.268 356.897L444.13 349.289L439.684 341.074L435.935 332.254L432.885 322.857L430.533 312.901L428.883 302.411L427.931 291.415L427.678 279.928L428.123 267.964L429.267 255.564L431.104 242.73L433.633 229.505L436.844 215.903L440.719 201.96L445.251 187.699L450.434 173.146L456.258 158.328L462.708 143.269L469.779 128.002L477.453 112.548L485.713 96.936L494.542 81.201L503.919 65.3631L513.833 49.4555L524.258 33.5062L535.185 17.545L546.592 1.58795L558.459 -14.3232L570.76 -30.1693L583.478 -45.9191L596.581 -61.5464L610.056 -77.024L623.868 -92.3252L638.007 -107.423L652.441 -122.287L667.147 -136.901L682.099 -151.231L697.274 -165.255L712.636 -178.952L728.164 -192.3L743.833 -205.269L759.614 -217.834L775.483 -229.974L791.406 -241.668L807.359 -252.902L823.32 -263.645L839.25 -273.89L855.127 -283.612L870.919 -292.79L886.6 -301.411L902.147 -309.445L917.525 -316.889L932.711 -323.726L947.674 -329.949L962.388 -335.539L976.834 -340.485L990.972 -344.778L1004.78 -348.404L1018.23 -351.347L1031.3 -353.607L1043.96 -355.18L1056.2 -356.058L1067.98 -356.246L1079.29 -355.74L1090.1 -354.527L1100.37 -352.613L1110.11 -349.988L1119.28 -346.662L1127.87 -342.641L1135.85 -337.93L1143.22 -332.539L1149.96 -326.477L1156.05 -319.743L1161.46 -312.349L1166.2 -304.304L1170.24 -295.621L1173.59 -286.321L1176.22 -276.422L1178.14 -265.936L1179.34 -254.882L1179.81 -243.283L1179.54 -231.155ZM1128.42 -213.564L1127.47 -202.299L1125.86 -190.601L1123.61 -178.5L1120.7 -166.019L1117.15 -153.184L1112.97 -140.013L1108.15 -126.538L1102.7 -112.783L1096.63 -98.7751L1089.95 -84.5329L1082.68 -70.095L1074.83 -55.4923L1066.42 -40.7475L1057.46 -25.8914L1047.97 -10.9586L1037.97 4.02017L1027.46 19.0181L1016.49 34.0085L1005.06 48.9527L993.202 63.8242L982.156 77.134L980.948 78.5957L968.313 93.2255L955.326 107.694L942.012 121.967L928.395 136.013L914.51 149.807L900.379 163.316L886.037 176.514L871.511 189.383L856.828 201.887L842.025 214.004L827.131 225.706L812.175 236.963L797.185 247.764L782.191 258.084L767.231 267.903L752.329 277.203L737.519 285.966L722.832 294.177L708.294 301.808L693.941 308.857L679.79 315.302L665.878 321.134L652.231 326.349L638.871 330.937L625.826 334.897L613.126 338.204L600.791 340.871L588.851 342.874L577.325 344.224L566.229 344.922L555.586 344.969L545.419 344.362L535.738 343.116L526.568 341.228L517.924 338.699L509.825 335.534L502.281 331.743L495.31 327.342L488.91 322.339L483.094 316.753L477.872 310.587L473.256 303.861L469.254 296.583L465.878 288.764L463.123 280.43L460.99 271.598L459.482 262.286L458.6 252.51L458.339 242.296L458.703 231.657L459.693 220.622L461.305 209.196L463.53 197.417L466.369 185.301L469.803 172.873L473.828 160.154L478.432 147.178L483.612 133.957L489.355 120.524L495.655 106.888L502.5 93.0912L509.863 79.152L517.744 65.094L526.112 50.9402L534.959 36.7287L544.275 22.4714L554.036 8.19841L564.23 -6.06298L574.835 -20.2896L585.835 -34.459L597.2 -48.5477L608.921 -62.5251L620.969 -76.3682L633.323 -90.0579L645.969 -103.563L658.88 -116.858L672.036 -129.93L685.411 -142.745L698.982 -155.287L712.726 -167.542L726.615 -179.474L740.627 -191.069L754.742 -202.307L768.931 -213.157L783.165 -223.609L797.434 -233.642L811.695 -243.245L825.934 -252.389L840.118 -261.071L854.234 -269.263L868.238 -276.952L882.12 -284.119L895.851 -290.753L909.403 -296.838L922.755 -302.378L935.885 -307.35L948.765 -311.743L961.369 -315.554L973.677 -318.761L985.655 -321.362L997.296 -323.35L1008.57 -324.724L1019.45 -325.479L1029.93 -325.614L1039.98 -325.126L1049.58 -324.01L1058.71 -322.264L1067.35 -319.889L1075.48 -316.885L1083.09 -313.267L1090.15 -309.031L1096.67 -304.193L1102.62 -298.748L1108 -292.717L1112.77 -286.094L1116.93 -278.893L1120.48 -271.127L1123.4 -262.813L1125.68 -253.966L1127.34 -244.6L1128.35 -234.732L1128.71 -224.384L1128.42 -213.564ZM1082.22 -188.81L1081.35 -178.953L1079.91 -168.724L1077.89 -158.146L1075.32 -147.238L1072.19 -136.027L1068.5 -124.528L1064.26 -112.761L1059.48 -100.755L1054.16 -88.5313L1048.3 -76.1077L1041.94 -63.5155L1035.08 -50.7774L1027.72 -37.9242L1019.89 -24.975L1011.61 -11.9606L1002.87 1.09611L993.703 14.1603L984.127 27.2207L974.159 40.2426L963.819 53.1995L953.133 66.0644L942.122 78.8102L930.803 91.4179L919.201 103.849L907.341 116.084L895.24 128.101L882.928 139.869L870.431 151.375L857.781 162.59L844.993 173.491L832.098 184.053L819.122 194.259L806.084 204.081L793.024 213.504L779.964 222.513L766.926 231.085L753.935 239.211L741.024 246.873L728.221 254.052L715.54 260.731L703.017 266.901L690.678 272.549L678.538 277.667L666.621 282.248L654.957 286.284L643.566 289.772L632.466 292.7L621.689 295.059L611.249 296.851L601.169 298.075L591.459 298.723L582.143 298.808L573.238 298.328L564.758 297.284L556.72 295.677L549.139 293.513L542.029 290.793L535.407 287.524L529.275 283.725L523.643 279.398L518.525 274.556L513.925 269.211L509.854 263.367L506.316 257.044L503.32 250.249L500.876 242.994L498.973 235.305L497.614 227.186L496.801 218.669L496.54 209.76L496.82 200.479L497.653 190.844L499.03 180.865L500.949 170.575L503.4 159.981L506.378 149.115L509.877 137.997L513.882 126.64L518.394 115.068L523.405 103.304L528.907 91.3717L534.877 79.286L541.319 67.0733L548.206 54.7535L555.531 42.3568L563.273 29.895L571.427 17.3986L579.975 4.88305L588.907 -7.62493L598.2 -20.1023L607.842 -32.5295L617.806 -44.8878L628.077 -57.1465L638.643 -69.2936L649.478 -81.2951L660.57 -93.1469L671.893 -104.807L683.434 -116.271L695.167 -127.513L707.072 -138.521L719.128 -149.264L731.309 -159.727L743.606 -169.89L755.98 -179.739L768.426 -189.247L780.915 -198.405L793.419 -207.195L805.923 -215.602L818.408 -223.613L830.843 -231.206L843.209 -238.369L855.483 -245.095L867.642 -251.353L879.666 -257.147L891.534 -262.461L903.22 -267.287L914.708 -271.615L925.976 -275.44L937 -278.744L947.754 -281.525L958.229 -283.774L968.392 -285.481L978.237 -286.648L987.741 -287.273L996.88 -287.357L1005.64 -286.889L1014.02 -285.877L1021.97 -284.311L1029.48 -282.197L1036.56 -279.534L1043.17 -276.326L1049.31 -272.59L1054.97 -268.319L1060.13 -263.523L1064.78 -258.213L1068.9 -252.389L1072.5 -246.062L1075.55 -239.244L1078.06 -231.95L1080.01 -224.193L1081.41 -215.982L1082.24 -207.341L1082.52 -198.279L1082.22 -188.81ZM1042.44 -157.736L1041.66 -149.292L1040.4 -140.529L1038.65 -131.47L1036.43 -122.139L1033.72 -112.539L1030.55 -102.702L1026.91 -92.6453L1022.8 -82.3819L1018.23 -71.9344L1013.22 -61.3219L1007.76 -50.5673L1001.89 -39.6898L995.598 -28.7167L988.903 -17.663L981.816 -6.55551L974.354 4.58273L967.981 13.6643L966.523 15.7362L958.346 26.8746L949.833 37.9818L941.012 49.0357L931.892 60.005L922.5 70.8784L912.842 81.6252L902.943 92.2304L892.826 102.67L882.505 112.914L872.007 122.959L861.349 132.774L850.556 142.339L839.652 151.639L828.648 160.656L817.583 169.365L806.464 177.752L797.647 184.121L797.578 184.175L795.321 185.802L784.176 193.494L773.049 200.823L761.965 207.771L750.941 214.321L740.01 220.463L729.183 226.18L718.486 231.467L707.939 236.305L697.564 240.702L687.377 244.635L677.402 248.111L667.66 251.115L658.164 253.644L648.937 255.689L639.993 257.25L631.356 258.321L623.038 258.912L615.05 259.011L607.407 258.636L600.133 257.776L593.226 256.433L586.708 254.618L580.599 252.324L574.902 249.565L569.619 246.346L564.765 242.674L560.349 238.565L556.374 234.023L552.848 229.054L549.782 223.663L547.181 217.877L545.048 211.692L543.379 205.128L542.178 198.202L541.445 190.924L541.184 183.312L541.391 175.377L542.07 167.14L543.214 158.607L544.825 149.797L546.897 140.727L549.418 131.423L552.388 121.9L555.798 112.166L559.643 102.252L563.917 92.1689L568.613 81.9324L573.716 71.5654L579.222 61.0872L585.115 50.5205L591.385 39.8774L598.018 29.1843L605.002 18.4564L612.33 7.71345L619.988 -3.0295L627.957 -13.7456L636.225 -24.4159L644.781 -35.0284L653.594 -45.5604L662.665 -55.9888L671.965 -66.3019L681.488 -76.4771L691.214 -86.4949L701.124 -96.3363L711.2 -105.99L721.425 -115.44L731.781 -124.66L742.243 -133.641L752.798 -142.362L763.43 -150.815L774.115 -158.976L784.836 -166.826L795.578 -174.361L806.314 -181.567L817.026 -188.427L827.7 -194.926L838.309 -201.061L848.841 -206.813L859.273 -212.165L869.586 -217.114L879.762 -221.65L889.779 -225.767L899.625 -229.45L909.278 -232.703L918.72 -235.508L927.932 -237.86L936.899 -239.752L945.597 -241.183L954.015 -242.15L962.137 -242.652L969.949 -242.683L977.438 -242.245L984.582 -241.34L991.37 -239.963L997.785 -238.113L1003.81 -235.796L1009.44 -233.014L1014.67 -229.772L1019.49 -226.081L1023.87 -221.941L1027.82 -217.36L1031.31 -212.342L1034.35 -206.893L1036.93 -201.031L1039.04 -194.757L1040.68 -188.093L1041.84 -181.045L1042.53 -173.628L1042.73 -165.855L1042.44 -157.736ZM1010.26 -121.337L1009.59 -114.254L1008.51 -106.914L1007.03 -99.3328L1005.16 -91.5172L1002.88 -83.4907L1000.21 -75.2645L997.16 -66.8544L993.715 -58.2753L989.889 -49.5467L985.692 -40.6836L981.134 -31.6978L976.219 -22.6163L970.958 -13.4577L968.119 -8.76927L965.364 -4.23416L959.448 5.03548L953.217 14.3283L946.683 23.6323L939.858 32.9214L932.76 42.1831L925.4 51.3993L917.792 60.55L909.957 69.6124L901.904 78.5791L893.655 87.419L885.218 96.1169L876.612 104.662L867.86 113.037L858.974 121.217L849.973 129.198L840.88 136.956L831.71 144.476L822.479 151.743L813.205 158.737L803.916 165.455L794.616 171.878L785.331 177.994L776.08 183.799L775.256 184.286L775.213 184.313L775.194 184.325L766.884 189.274L757.756 194.404L748.713 199.188L739.78 203.608L730.968 207.664L722.3 211.343L713.786 214.647L705.445 217.563L697.292 220.084L689.346 222.213L681.623 223.943L674.137 225.267L666.897 226.184L659.926 226.694L653.231 226.806L646.819 226.51L640.707 225.816L634.906 224.718L629.435 223.222L624.293 221.327L619.494 219.044L615.043 216.373L610.953 213.327L607.224 209.905L603.862 206.129L600.881 201.989L598.276 197.504L596.062 192.674L594.244 187.517L592.809 182.038L591.769 176.256L591.124 170.179L590.871 163.817L591.013 157.183L591.542 150.292L592.475 143.152L593.791 135.782L595.498 128.189L597.582 120.396L600.045 112.416L602.876 104.266L606.076 95.9557L609.633 87.5033L613.55 78.9205L617.813 70.2303L622.409 61.444L627.332 52.5771L632.577 43.6491L638.129 34.6748L643.972 25.6699L650.111 16.6533L656.522 7.64058L663.206 -1.35272L670.139 -10.3116L677.306 -19.2207L684.7 -28.0567L692.308 -36.8162L700.112 -45.472L708.1 -54.0126L716.261 -62.4191L724.579 -70.6835L733.039 -78.783L741.619 -86.7099L750.313 -94.4448L759.095 -101.976L767.958 -109.297L776.882 -116.38L785.853 -123.217L794.85 -129.797L803.863 -136.108L812.871 -142.14L821.865 -147.88L830.82 -153.32L839.721 -158.454L848.553 -163.257L857.301 -167.724L865.949 -171.852L874.479 -175.631L882.877 -179.057L891.127 -182.127L899.211 -184.824L907.122 -187.149L914.834 -189.091L922.335 -190.644L929.617 -191.811L936.658 -192.59L943.452 -192.977L949.983 -192.97L956.241 -192.574L962.207 -191.78L967.87 -190.591L973.222 -189.006L978.252 -187.03L982.948 -184.667L987.299 -181.919L991.309 -178.793L994.958 -175.297L998.234 -171.43L1001.13 -167.202L1003.66 -162.613L1005.79 -157.679L1007.53 -152.403L1008.88 -146.805L1009.83 -140.885L1010.37 -134.658L1010.52 -128.143L1010.26 -121.337Z" stroke="url(#paint0_angular_54_41912)" stroke-width="4.63274" stroke-miterlimit="10" stroke-linecap="round" stroke-linejoin="round"/>
</g>
</g>
<defs>
<radialGradient id="paint0_angular_54_41912" cx="0" cy="0" r="1" gradientUnits="userSpaceOnUse" gradientTransform="translate(997.434 213.5) rotate(90) scale(608.553 608.434)">
<stop offset="0.0993526" stop-color="#FFC876"/>
<stop offset="0.427081" stop-color="#79FFF7"/>
<stop offset="0.718753" stop-color="#9F53FF"/>
<stop offset="1" stop-color="#FF98E2"/>
</radialGradient>
</defs>
</svg>
