<svg width="60" height="60" viewBox="0 0 60 60" fill="none" xmlns="http://www.w3.org/2000/svg">
<path d="M14.0433 1.2493C12.3621 1.24551 10.6968 1.57384 9.14285 2.21544C7.58893 2.85705 6.17705 3.79928 4.98829 4.98804C3.79953 6.17681 2.85729 7.58868 2.21569 9.1426C1.57409 10.6965 1.24575 12.3619 1.24954 14.043V45.9555C1.24575 47.6367 1.57409 49.302 2.21569 50.8559C2.85729 52.4098 3.79953 53.8217 4.98829 55.0105C6.17705 56.1992 7.58893 57.1415 9.14285 57.7831C10.6968 58.4247 12.3621 58.753 14.0433 58.7492H45.9557C47.6369 58.753 49.3023 58.4247 50.8562 57.7831C52.4101 57.1415 53.822 56.1992 55.0107 55.0105C56.1995 53.8217 57.1417 52.4098 57.7833 50.8559C58.4249 49.302 58.7533 47.6367 58.7495 45.9555V14.043C58.7533 12.3619 58.4249 10.6965 57.7833 9.1426C57.1417 7.58868 56.1995 6.17681 55.0107 4.98804C53.822 3.79928 52.4101 2.85705 50.8562 2.21544C49.3023 1.57384 47.6369 1.24551 45.9557 1.2493H14.0433ZM29.6761 7.40179C35.2727 7.40179 40.3327 9.56283 44.1852 13.5998C47.1177 16.6473 48.7661 19.8745 49.6094 24.1223C49.8969 25.5358 49.8969 29.3931 49.6262 30.984C48.7297 36.0404 45.9574 40.5719 41.8637 43.6723C40.407 44.7744 36.842 46.6934 36.267 46.6934C36.0562 46.6934 36.037 46.4754 36.1328 45.5913C36.3053 44.173 36.4778 43.8783 37.2828 43.5405C38.567 43.0038 40.752 41.4465 42.0937 40.1025C44.4328 37.7647 46.0952 34.8373 46.9045 31.6308C47.4028 29.6567 47.3453 25.2675 46.7895 23.2358C45.0453 16.7767 39.7745 11.755 33.3153 10.4134C31.437 10.03 28.0253 10.03 26.1279 10.4134C19.592 11.755 14.187 17.0258 12.5387 23.6575C12.0979 25.4592 12.0979 29.8483 12.5387 31.65C13.6312 36.0392 16.4679 40.0641 20.1862 42.46C20.9145 42.9391 21.7962 43.4375 22.1604 43.5908C22.9654 43.9358 23.1379 44.2233 23.2912 45.6416C23.387 46.5041 23.3631 46.7533 23.157 46.7533C23.0229 46.7533 22.0454 46.3316 21.0104 45.8333L20.9145 45.7614C14.992 42.8481 11.197 37.9175 9.81704 31.3577C9.47204 29.6662 9.41454 25.6269 9.74516 24.0744C10.6077 19.9056 12.256 16.6473 14.9968 13.7627C18.9452 9.60116 24.0243 7.3994 29.6785 7.3994L29.6761 7.40179ZM29.9971 14.1341C30.977 14.1437 31.921 14.2299 32.6469 14.388C39.3169 15.8734 44.0511 22.553 43.1311 29.1799C42.7669 31.8488 41.8469 34.0434 40.2177 36.0799C39.4127 37.1101 37.4577 38.8351 37.1127 38.8351C37.0576 38.8351 36.9977 38.1834 36.9977 37.3904V35.9409L37.9944 34.7526C41.7511 30.2532 41.4827 23.9666 37.3811 19.8409C35.7902 18.2357 33.9502 17.2918 31.5736 16.8557C30.0402 16.573 29.7144 16.573 28.1044 16.8366C25.6607 17.2367 23.768 18.183 22.0861 19.8457C17.9653 23.9282 17.6969 30.2484 21.4536 34.7526L22.4431 35.9409V37.3976C22.4431 38.2026 22.3784 38.8543 22.2993 38.8543C22.2274 38.8543 21.6668 38.4709 21.0726 37.9918L20.9912 37.9654C18.9979 36.3746 17.2345 33.5523 16.5062 30.7851C16.0654 29.1128 16.0654 25.9359 16.5254 24.2684C17.7329 19.7691 21.0487 16.2783 25.6487 14.6396C26.631 14.2922 28.3632 14.1125 29.9947 14.1341H29.9971ZM29.6857 21.2976C30.4284 21.2976 31.1711 21.4414 31.7077 21.7241C32.8994 22.3667 33.7933 23.4489 34.1994 24.7404C35.3111 28.521 31.3052 31.8321 27.6827 30.1406H27.6468C25.941 29.3476 25.021 27.8502 25.0018 25.9C25.0018 24.1439 25.9793 22.6153 27.666 21.7193C28.2026 21.439 28.9453 21.2976 29.6881 21.2976H29.6857ZM29.6593 32.6251C32.0264 32.6155 33.7466 33.4612 34.3791 34.9491C34.8535 36.0607 34.6762 39.5778 33.8568 45.2559C33.301 49.2234 32.9943 50.2249 32.2276 50.9005C31.1735 51.8349 29.6785 52.0936 28.2601 51.5905H28.253C26.5375 50.9748 26.1686 50.141 25.4642 45.2559C24.6472 39.5778 24.4675 36.0607 24.9419 34.9491C25.5696 33.4732 27.2755 32.6347 29.6617 32.6251H29.6593Z" fill="#C665EE"/>
</svg>
