<svg width="62" height="70" viewBox="0 0 62 70" fill="none" xmlns="http://www.w3.org/2000/svg">
<path d="M30.9976 -2.5106e-05C30.1517 -2.5106e-05 29.3059 0.198308 28.6292 0.600808L3.04715 15.7266C1.70548 16.52 0.702148 18.2787 0.702148 19.8333V50.1666C0.702148 51.7212 1.70548 53.4771 3.04715 54.2704L28.6263 69.3991C29.9826 70.2012 32.0155 70.2012 33.3688 69.3991L58.948 54.2704C60.2897 53.4771 61.293 51.7212 61.293 50.1666V19.8333C61.293 18.2787 60.2897 16.52 58.948 15.7266L33.3688 0.600808C32.6449 0.195594 31.8271 -0.0116461 30.9976 -2.5106e-05ZM28.5184 24.22C29.6676 24.22 30.6009 25.1037 30.6009 26.1916V32.6783C30.6009 33.2821 31.158 33.7721 31.8463 33.7721C32.5347 33.7721 33.0947 33.2821 33.0947 32.6783V27.9125C33.0947 26.8246 34.028 25.9437 35.1742 25.9437C36.3234 25.9437 37.2509 26.8246 37.2509 27.9125V41.6587C37.2509 42.7496 36.3234 43.6304 35.1742 43.6304C34.0251 43.6304 33.0947 42.7496 33.0947 41.6587V37.8379C33.0947 37.2371 32.5347 36.7471 31.8463 36.7471C31.158 36.7471 30.6009 37.2371 30.6009 37.8379V41.4137C30.6009 42.5046 29.6676 43.3854 28.5213 43.3854C27.3722 43.3854 26.4417 42.5046 26.4417 41.4137V36.5516C26.4417 35.9479 25.8817 35.4579 25.1934 35.4579C24.508 35.4579 23.948 35.9479 23.948 36.5516V46.2058C23.948 47.2937 23.0176 48.1775 21.8713 48.1775C20.7222 48.1775 19.7917 47.2937 19.7917 46.2058V39.1271C19.7917 38.5262 19.2347 38.0362 18.5434 38.0362C17.858 38.0362 17.298 38.5262 17.298 39.1271V39.6462C17.2972 39.9182 17.2429 40.1873 17.1381 40.4383C17.0333 40.6892 16.8802 40.9171 16.6873 41.1088C16.4945 41.3006 16.2658 41.4525 16.0142 41.5558C15.7627 41.6592 15.4933 41.712 15.2213 41.7112C14.9491 41.7124 14.6794 41.6599 14.4275 41.5567C14.1756 41.4535 13.9466 41.3017 13.7534 41.1099C13.5603 40.9181 13.4068 40.6901 13.3019 40.4389C13.1969 40.1878 13.1425 39.9184 13.1417 39.6462V33.4541C13.1425 33.182 13.1969 32.9126 13.3019 32.6614C13.4068 32.4103 13.5603 32.1823 13.7534 31.9905C13.9466 31.7987 14.1756 31.6469 14.4275 31.5437C14.6794 31.4405 14.9491 31.388 15.2213 31.3891C15.4933 31.3884 15.7627 31.4412 16.0142 31.5445C16.2658 31.6479 16.4945 31.7998 16.6873 31.9916C16.8802 32.1833 17.0333 32.4112 17.1381 32.6621C17.2429 32.9131 17.2972 33.1822 17.298 33.4541V33.9733C17.298 34.5741 17.858 35.0612 18.5434 35.0612C19.2347 35.0612 19.7917 34.5741 19.7917 33.9733V29.5108C19.7917 28.42 20.7251 27.5391 21.8713 27.5391C23.0176 27.5391 23.948 28.4229 23.948 29.5108V31.395C23.948 31.9958 24.508 32.4858 25.1934 32.4858C25.8817 32.4858 26.4417 31.9958 26.4417 31.395V26.1916C26.4417 25.1037 27.3722 24.22 28.5213 24.22H28.5184ZM41.8242 31.2666C42.9705 31.2666 43.9038 32.1475 43.9038 33.2383V41.0871C43.9038 42.1779 42.9705 43.0587 41.8242 43.0587C40.6751 43.0587 39.7476 42.175 39.7476 41.0871V33.2383C39.7476 32.1475 40.678 31.2666 41.8242 31.2666ZM48.4742 35.2566C49.6263 35.2566 50.5538 36.1404 50.5538 37.2283V39.1825C50.5538 40.2733 49.6263 41.1541 48.4771 41.1541C47.328 41.1541 46.3976 40.2733 46.3976 39.1854V37.2312C46.3976 36.1404 47.3309 35.2566 48.4771 35.2566H48.4742Z" fill="#F56C3B"/>
</svg>
