<svg width="70" height="70" viewBox="0 0 70 70" fill="none" xmlns="http://www.w3.org/2000/svg">
<path d="M5.64789 28.5088C3.32841 28.5088 1.45605 30.3812 1.45605 32.7007V37.2558C1.45605 38.3675 1.89769 39.4337 2.68381 40.2198C3.46994 41.006 4.53614 41.4476 5.64789 41.4476C6.75963 41.4476 7.82584 41.006 8.61196 40.2198C9.39808 39.4337 9.83972 38.3675 9.83972 37.2558V32.7007C9.83972 30.3812 7.96737 28.5088 5.64789 28.5088ZM64.3336 28.5088C62.0141 28.5088 60.1417 30.3812 60.1417 32.7007V37.2558C60.1417 38.3675 60.5834 39.4337 61.3695 40.2198C62.1556 41.006 63.2218 41.4476 64.3336 41.4476C65.4453 41.4476 66.5115 41.006 67.2976 40.2198C68.0837 39.4337 68.5254 38.3675 68.5254 37.2558V32.7007C68.5254 30.3812 66.653 28.5088 64.3336 28.5088ZM20.1237 42.2301C17.8042 42.2301 15.9319 44.1024 15.9319 46.4219V50.977C15.9319 52.0888 16.3735 53.155 17.1596 53.9411C17.9457 54.7272 19.0119 55.1689 20.1237 55.1689C21.2354 55.1689 22.3016 54.7272 23.0878 53.9411C23.8739 53.155 24.3155 52.0888 24.3155 50.977V46.4499C24.3155 44.1304 22.4432 42.258 20.1237 42.258V42.2301ZM20.1237 14.7875C17.8042 14.7875 15.9319 16.6599 15.9319 18.9794V33.9582C15.9319 35.0699 16.3735 36.1362 17.1596 36.9223C17.9457 37.7084 19.0119 38.15 20.1237 38.15C21.2354 38.15 22.3016 37.7084 23.0878 36.9223C23.8739 36.1362 24.3155 35.0699 24.3155 33.9582V18.9514C24.3155 16.632 22.4432 14.7596 20.1237 14.7596V14.7875ZM49.8578 14.7875C47.5383 14.7875 45.6659 16.6599 45.6659 18.9794V23.5625C45.6659 24.6742 46.1076 25.7404 46.8937 26.5265C47.6798 27.3126 48.746 27.7543 49.8578 27.7543C50.9695 27.7543 52.0357 27.3126 52.8218 26.5265C53.608 25.7404 54.0496 24.6742 54.0496 23.5625V18.9794C54.0496 16.6599 52.1772 14.7875 49.8578 14.7875ZM34.9907 1.45752C32.6712 1.45752 30.7989 3.32987 30.7989 5.64935V10.2045C30.7989 11.3162 31.2405 12.3824 32.0266 13.1686C32.8128 13.9547 33.879 14.3963 34.9907 14.3963C36.1025 14.3963 37.1687 13.9547 37.9548 13.1686C38.7409 12.3824 39.1826 11.3162 39.1826 10.2045V5.64935C39.1826 3.32987 37.3102 1.45752 34.9907 1.45752ZM34.9907 55.5601C32.6712 55.5601 30.7989 57.4325 30.7989 59.752V64.335C30.7971 64.8855 30.9037 65.4309 31.1126 65.9402C31.3216 66.4495 31.6288 66.9126 32.0168 67.3032C32.4047 67.6937 32.8658 68.004 33.3737 68.2164C33.8815 68.4288 34.4263 68.539 34.9767 68.5408C35.5272 68.5427 36.0727 68.4361 36.582 68.2271C37.0912 68.0181 37.5544 67.7109 37.9449 67.3229C38.3355 66.935 38.6458 66.4739 38.8581 65.966C39.0705 65.4582 39.1807 64.9134 39.1826 64.363V59.7799C39.1826 57.4884 37.3102 55.5881 34.9907 55.5881V55.5601ZM49.8578 31.9182C47.5383 31.9182 45.6659 33.8185 45.6659 36.11V51.005C45.6659 52.1167 46.1076 53.1829 46.8937 53.9691C47.6798 54.7552 48.746 55.1968 49.8578 55.1968C50.9695 55.1968 52.0357 54.7552 52.8218 53.9691C53.608 53.1829 54.0496 52.1167 54.0496 51.005V36.11C54.0496 33.7905 52.1772 31.9182 49.8578 31.9182ZM34.9907 18.5881C32.6712 18.5881 30.7989 20.4884 30.7989 22.78V47.1764C30.7989 48.2882 31.2405 49.3544 32.0266 50.1405C32.8128 50.9266 33.879 51.3683 34.9907 51.3683C36.1025 51.3683 37.1687 50.9266 37.9548 50.1405C38.7409 49.3544 39.1826 48.2882 39.1826 47.1764V22.8079C39.1826 20.4884 37.3102 18.6161 34.9907 18.6161V18.5881Z" fill="#FAB908"/>
<path d="M64.3349 28.5089C62.0154 28.5089 60.1431 30.3813 60.1431 32.7007V37.2559C60.1431 38.3676 60.5847 39.4338 61.3708 40.2199C62.157 41.0061 63.2232 41.4477 64.3349 41.4477C65.4466 41.4477 66.5129 41.0061 67.299 40.2199C68.0851 39.4338 68.5267 38.3676 68.5267 37.2559V32.7007C68.5267 30.3813 66.6544 28.5089 64.3349 28.5089Z" fill="#4285F4"/>
<path d="M5.64789 28.5089C3.32841 28.5089 1.45605 30.3813 1.45605 32.7007V37.2559C1.45605 38.3676 1.89769 39.4338 2.68381 40.2199C3.46994 41.0061 4.53614 41.4477 5.64789 41.4477C6.75963 41.4477 7.82584 41.0061 8.61196 40.2199C9.39808 39.4338 9.83972 38.3676 9.83972 37.2559V32.7007C9.83972 30.3813 7.96737 28.5089 5.64789 28.5089Z" fill="#0066D9"/>
<path d="M49.8627 14.7876C47.5433 14.7876 45.6709 16.6599 45.6709 18.9794V23.5625C45.6709 24.6742 46.1125 25.7405 46.8987 26.5266C47.6848 27.3127 48.751 27.7543 49.8627 27.7543C50.9745 27.7543 52.0407 27.3127 52.8268 26.5266C53.6129 25.7405 54.0546 24.6742 54.0546 23.5625V18.9794C54.0546 16.6599 52.1822 14.7876 49.8627 14.7876ZM49.8627 31.9182C47.5433 31.9182 45.6709 33.8185 45.6709 36.1101V51.005C45.6709 52.1168 46.1125 53.183 46.8987 53.9691C47.6848 54.7552 48.751 55.1969 49.8627 55.1969C50.9745 55.1969 52.0407 54.7552 52.8268 53.9691C53.6129 53.183 54.0546 52.1168 54.0546 51.005V36.1101C54.0546 33.7906 52.1822 31.9182 49.8627 31.9182Z" fill="#34A853"/>
<path d="M20.1264 42.2305C17.8069 42.2305 15.9346 44.1028 15.9346 46.4223V50.9775C15.9346 52.0892 16.3762 53.1554 17.1623 53.9415C17.9485 54.7277 19.0147 55.1693 20.1264 55.1693C21.2381 55.1693 22.3044 54.7277 23.0905 53.9415C23.8766 53.1554 24.3182 52.0892 24.3182 50.9775V46.4503C24.3182 44.1308 22.4459 42.2584 20.1264 42.2584V42.2305ZM20.1264 14.788C17.8069 14.788 15.9346 16.6603 15.9346 18.9798V33.9586C15.9346 35.0704 16.3762 36.1366 17.1623 36.9227C17.9485 37.7088 19.0147 38.1504 20.1264 38.1504C21.2381 38.1504 22.3044 37.7088 23.0905 36.9227C23.8766 36.1366 24.3182 35.0704 24.3182 33.9586V18.9518C24.3182 16.6324 22.4459 14.76 20.1264 14.76V14.788Z" fill="#EA4335"/>
</svg>
