<svg width="70" height="37" viewBox="0 0 70 37" fill="none" xmlns="http://www.w3.org/2000/svg">
<path d="M3.42818 19.068C3.27944 19.068 3.15475 19.2135 3.13069 19.3972L2.44821 26.7342L3.13069 33.9002C3.15475 34.0865 3.27944 34.2345 3.42818 34.2345C3.57693 34.2345 3.69067 34.0891 3.71036 33.9002L4.4519 26.7342L3.66661 19.3972C3.66661 19.2135 3.54193 19.068 3.40412 19.068H3.42818ZM0.785766 21.8854C0.612959 21.8854 0.523274 22.0054 0.477338 22.2019L-0.00170898 26.7342L0.477338 31.1747C0.477338 31.3763 0.615146 31.509 0.73983 31.509C0.877638 31.509 1.00232 31.3482 1.04607 31.1492L1.66074 26.6576L1.04607 22.1253C1.04607 21.9109 0.921386 21.8191 0.785766 21.8191V21.8854ZM6.11653 17.6312C5.94372 17.6312 5.77311 17.792 5.77311 17.9885L5.16062 26.7087L5.8081 35.069C5.8081 35.2655 5.94591 35.4799 6.16028 35.4799C6.34402 35.4799 6.46871 35.2655 6.51246 35.069L7.25399 26.6551L6.51246 17.9757C6.46871 17.7792 6.3309 17.5776 6.16028 17.5776L6.11653 17.6312ZM8.92082 17.2714C8.70207 17.2714 8.52052 17.473 8.47458 17.7384L7.91679 26.7112L8.53145 35.3778C8.5752 35.6305 8.74801 35.8397 8.96238 35.8397C9.17675 35.8397 9.36268 35.6279 9.39768 35.337L10.1042 26.7112L9.39768 17.792C9.39855 17.7317 9.38922 17.6717 9.37023 17.6156C9.35124 17.5595 9.32296 17.5083 9.28701 17.4649C9.25106 17.4215 9.20813 17.3869 9.16069 17.3629C9.11324 17.3388 9.06221 17.326 9.0105 17.325L8.92082 17.2714ZM12.2916 18.4963C12.2844 18.3582 12.232 18.2286 12.1454 18.1342C12.0587 18.0397 11.9443 17.9876 11.8257 17.9885C11.5632 17.9885 11.3598 18.1901 11.3467 18.4963L10.7079 26.7623L11.2876 35.4825C11.2876 35.7887 11.5151 36.026 11.7535 36.026C11.9701 36.026 12.1888 35.7887 12.1888 35.4825L12.8473 26.7623L12.1888 18.4428L12.2916 18.4963ZM14.6475 12.688C14.5099 12.6919 14.3789 12.7574 14.2815 12.8709C14.1842 12.9845 14.128 13.1374 14.1247 13.2979L13.51 26.7623L14.0547 35.4825C14.0547 35.7887 14.2822 36.0414 14.5797 36.0414C14.8531 36.0414 15.0806 35.7351 15.1047 35.4289L15.7084 26.7112L15.1047 13.1933C15.0806 12.836 14.8422 12.5808 14.5797 12.5808L14.6475 12.688ZM17.373 9.46737C17.0668 9.46737 16.8043 9.77361 16.7803 10.1334L16.2553 26.7087L16.7343 35.3753C16.7343 35.7862 16.9968 36.0898 17.3052 36.0898C17.6115 36.0898 17.874 35.7862 17.9199 35.3753L18.4886 26.7087L17.9199 10.1845C17.874 9.77361 17.6115 9.46737 17.3162 9.46737H17.373ZM20.1992 7.94127C19.847 7.94127 19.5845 8.24751 19.5364 8.64562L19.0574 26.6015L19.5364 35.1762C19.5823 35.5743 19.8448 35.9495 20.1992 35.9495C20.3714 35.9417 20.5345 35.8572 20.655 35.7133C20.7754 35.5695 20.844 35.3773 20.8467 35.1762L21.4176 26.6015L20.8467 8.64562C20.8412 8.44705 20.7713 8.25831 20.6511 8.11759C20.5309 7.97688 20.3694 7.89469 20.1992 7.88768V7.94127ZM23.8216 8.03314C23.8219 7.92681 23.8041 7.82146 23.7694 7.72316C23.7346 7.62486 23.6836 7.53554 23.6191 7.46035C23.5547 7.38516 23.4781 7.32559 23.3939 7.28505C23.3096 7.24452 23.2193 7.22382 23.1282 7.22416C22.776 7.22416 22.4216 7.58399 22.4216 8.03314L21.9863 26.5505L22.4216 35.0716C22.4363 35.2933 22.5213 35.5006 22.6601 35.6531C22.7988 35.8055 22.9814 35.8921 23.1719 35.8959C23.2644 35.8962 23.356 35.8751 23.4413 35.8337C23.5267 35.7922 23.6041 35.7314 23.6691 35.6546C23.7341 35.5779 23.7853 35.4868 23.8197 35.3867C23.8542 35.2866 23.8712 35.1795 23.8697 35.0716L24.3488 26.5505L23.8697 7.99486L23.8216 8.03314ZM26.009 7.58399C25.8147 7.58975 25.6295 7.68205 25.4917 7.84197C25.3538 8.00188 25.2736 8.2173 25.2675 8.44402L24.8234 26.5632L25.2675 34.9746C25.2675 35.4825 25.6087 35.8397 26.009 35.8397C26.4093 35.8397 26.7506 35.4289 26.7506 34.9236L27.1946 26.4943L26.7046 8.44402C26.7052 8.32351 26.6853 8.20407 26.646 8.09261C26.6068 7.98115 26.5489 7.87989 26.4759 7.79468C26.4029 7.70947 26.3161 7.64201 26.2205 7.59621C26.125 7.5504 26.0226 7.52717 25.9193 7.52785L26.009 7.58399ZM28.8461 8.08673C28.627 8.08876 28.4175 8.1919 28.2634 8.37362C28.1092 8.55534 28.0231 8.80085 28.0236 9.05649L27.7174 26.5632L28.1177 34.9746C28.1174 35.101 28.1388 35.2262 28.1807 35.3427C28.2226 35.4593 28.2841 35.5649 28.3616 35.6531C28.4392 35.7414 28.5311 35.8107 28.632 35.8568C28.7328 35.9028 28.8406 35.9248 28.9489 35.9214C29.3798 35.9214 29.7342 35.5105 29.7692 34.9517L30.1214 26.6423L29.7342 9.24534C29.7014 8.68646 29.3383 8.27558 28.903 8.27558L28.8461 8.08673ZM32.3548 5.05496C32.2069 4.95769 32.04 4.90658 31.8702 4.90658C31.7005 4.90658 31.5336 4.95769 31.3857 5.05496C31.2564 5.14454 31.1487 5.27086 31.0726 5.42214C30.9965 5.57342 30.9545 5.74473 30.9504 5.92009V6.13445L30.6551 26.7112L30.9854 35.0435V35.0716C31.0022 35.296 31.0778 35.509 31.202 35.6815C31.2888 35.7931 31.3944 35.8827 31.5122 35.9446C31.63 36.0065 31.7575 36.0395 31.8866 36.0414C32.1128 36.027 32.3271 35.9183 32.4904 35.7351C32.6651 35.5295 32.7626 35.2514 32.7616 34.9619L32.7966 34.1529L33.1378 26.6576L32.7507 5.94816C32.7478 5.78548 32.7101 5.62622 32.6409 5.48492C32.5717 5.34362 32.4734 5.22476 32.3548 5.13917V5.05496ZM35.2837 3.19455C35.2269 3.12826 35.1588 3.07654 35.0838 3.0427C35.0089 3.00887 34.9287 2.99365 34.8484 2.99804C34.6313 2.99075 34.4173 3.05917 34.2338 3.19455C34.1291 3.29547 34.0444 3.42163 33.9855 3.56436C33.9266 3.70709 33.8949 3.86301 33.8925 4.0214V4.11327L33.4922 26.6015L33.711 30.7357L33.8925 34.7654C33.9032 35.0534 34.0084 35.3255 34.1863 35.5255C34.3643 35.7256 34.6013 35.8381 34.8484 35.8397C35.3734 35.8397 35.8043 35.3217 35.8043 34.7092L36.2506 26.4943L35.8043 3.91166C35.7968 3.72089 35.7492 3.5352 35.6657 3.37097C35.5821 3.20674 35.4652 3.06903 35.3253 2.96997L35.2837 3.19455ZM61.3841 15.8218C60.2117 15.8218 59.072 16.1153 58.068 16.6206C57.7271 12.215 55.9856 8.11751 53.186 5.13421C50.3864 2.1509 46.7314 0.497656 42.9397 0.499636C41.0126 0.499636 39.1227 0.961546 37.4252 1.72204C36.7624 2.02828 36.6377 2.33452 36.594 2.94445V34.8164C36.6377 35.4289 37.0249 35.9495 37.563 36.0005H61.4301C62.5543 36.0127 63.6694 35.7642 64.7106 35.2696C65.7519 34.7749 66.6985 34.0438 67.4956 33.1188C68.2928 32.1939 68.9245 31.0934 69.3541 29.8813C69.7837 28.6692 70.0026 27.3696 69.9982 26.0579C70.0011 24.7419 69.7818 23.438 69.3527 22.2208C68.9237 21.0037 68.2934 19.897 67.4977 18.964C66.7021 18.031 65.7568 17.29 64.7157 16.7833C63.6746 16.2766 62.5581 16.014 61.4301 16.0107L61.3841 15.8218Z" fill="#EE7512"/>
</svg>
