<svg width="70" height="70" viewBox="0 0 70 70" fill="none" xmlns="http://www.w3.org/2000/svg">
<path d="M35.0029 2.91675C17.3564 2.91675 2.91797 17.3551 2.91797 35.0017C2.91797 52.645 17.3564 67.0834 35.0029 67.0834C52.6463 67.0834 67.0846 52.645 67.0846 35.0017C67.0846 17.3551 52.8068 2.91675 35.0029 2.91675ZM49.7592 49.2763C49.1202 50.2365 47.9962 50.5609 47.0295 49.9218C39.486 45.2653 30.0221 44.3019 18.7918 46.8678C17.6743 47.1953 16.7109 46.3925 16.3897 45.4258C16.0654 44.3019 16.8682 43.3449 17.8348 43.0205C30.0221 40.2908 40.6132 41.418 48.9532 46.553C50.0771 47.0315 50.2377 48.3129 49.7592 49.2763ZM53.6129 40.4546C52.8068 41.5754 51.3649 42.0571 50.2377 41.2543C41.5766 35.9683 28.426 34.3562 18.3198 37.5676C17.0416 37.8919 15.5901 37.2465 15.2722 35.9683C14.9478 34.6773 15.5933 33.2322 16.8746 32.9111C28.5834 29.385 43.0249 31.1512 52.9674 37.2497C53.9308 37.7282 54.4125 39.3306 53.6129 40.4546ZM53.9308 31.466C43.664 25.374 26.4992 24.7317 16.7109 27.7857C15.9665 28.0002 15.1681 27.9197 14.4815 27.5608C13.795 27.202 13.2731 26.5925 13.0242 25.8589C12.8059 25.1136 12.8842 24.3128 13.2427 23.6239C13.6012 22.935 14.2122 22.4114 14.9478 22.1626C26.3386 18.7938 45.1091 19.4329 56.9816 26.5012C58.4235 27.3008 58.9052 29.2276 58.1024 30.6695C57.2995 31.7935 55.3759 32.2688 53.9308 31.466Z" fill="#1DD05D"/>
</svg>
