<svg width="83" height="36" viewBox="0 0 83 36" fill="none" xmlns="http://www.w3.org/2000/svg">
<g clip-path="url(#clip0_49_42282)">
<path d="M21.4135 11.237L21.4308 11.2125L26.6472 7.36842V2.82666H12.199V7.36914H20.1499L14.8543 11.3378L14.8255 15.7528H20.7079C23.2891 15.7528 25.3778 17.8415 25.3778 20.4227C25.3778 23.0039 23.2891 25.0927 20.7079 25.0927C19.7323 25.0927 18.828 24.7895 18.0806 24.2776C16.9891 20.4098 13.433 17.5737 9.216 17.5737C8.67312 17.5737 8.14176 17.6198 7.62552 17.7098C9.12384 16.4865 11.0326 15.7528 13.1098 15.7528V11.3378C5.86872 11.3378 0 17.2051 0 24.4468C0 24.4468 0.00216 26.8934 0.00216 26.951C0.09 31.9629 4.18176 35.9999 9.21672 35.9999C13.4496 35.9999 17.0165 33.1444 18.095 29.255C18.923 29.5034 19.7993 29.6351 20.7086 29.6351C25.7954 29.6351 29.9203 25.5103 29.9203 20.4235C29.9203 15.3359 26.1706 11.597 21.4135 11.237ZM14.0378 31.6094L11.677 30.7569C10.9634 31.2004 10.1218 31.4575 9.21672 31.4575C6.63552 31.4575 4.54464 29.3687 4.54464 26.7875C4.54464 24.2063 6.63552 22.1176 9.21672 22.1176C11.7979 22.1176 13.8866 24.2063 13.8866 26.7875C13.8866 27.6926 13.6296 28.5335 13.1861 29.2478L14.0378 31.6094Z" fill="#00E9D4"/>
<path d="M34.8004 0C31.9824 0 29.7 2.28024 29.7 5.09832C29.7 7.9164 31.9824 10.1966 34.8004 10.1966C37.6185 10.1966 39.8988 7.9164 39.8988 5.09832C39.898 2.28024 37.6185 0 34.8004 0ZM34.8004 6.97176C33.7636 6.97176 32.9248 6.13296 32.9248 5.09616C32.9248 4.05936 33.7636 3.22272 34.8004 3.22272C35.8372 3.22272 36.6739 4.06152 36.6739 5.09616C36.6739 6.13008 35.8344 6.97176 34.8004 6.97176Z" fill="#F38532"/>
<path d="M44.2915 28.242C44.5859 28.5473 44.7285 28.9188 44.7285 29.3559C44.7285 29.7929 44.5859 30.1709 44.2915 30.4762C43.997 30.7815 43.6499 30.9305 43.2374 30.9305C42.7823 30.9305 42.4353 30.7635 42.1898 30.4272V31.9673H41.5439V27.8597H42.1898V28.2903C42.436 27.9497 42.7831 27.7805 43.2374 27.7805C43.6499 27.7812 43.997 27.9368 44.2915 28.242ZM43.1359 30.3135C43.4059 30.3135 43.6319 30.2235 43.8127 30.0435C43.9927 29.8592 44.0827 29.6302 44.0827 29.3537C44.0827 29.0772 43.9927 28.8504 43.8127 28.6704C43.6327 28.484 43.4066 28.3961 43.1359 28.3961C42.8659 28.3961 42.6398 28.4861 42.4591 28.6704C42.2791 28.8504 42.1891 29.0765 42.1891 29.3537C42.1891 29.6302 42.2791 29.857 42.4591 30.0435C42.6398 30.2235 42.8659 30.3135 43.1359 30.3135Z" fill="white"/>
<path d="M45.5919 30.4762C45.2866 30.1709 45.1304 29.7994 45.1304 29.3559C45.1304 28.9124 45.2866 28.5408 45.5919 28.2356C45.8972 27.9303 46.2752 27.7805 46.7122 27.7805C47.1493 27.7805 47.5265 27.9296 47.8325 28.2356C48.1378 28.5408 48.2941 28.9124 48.2941 29.3559C48.2941 29.7994 48.1378 30.1709 47.8325 30.4762C47.5273 30.7815 47.1565 30.9305 46.7122 30.9305C46.268 30.9305 45.8972 30.7815 45.5919 30.4762ZM46.7122 30.3027C46.9757 30.3027 47.1975 30.2127 47.3775 30.0327C47.5575 29.8527 47.6475 29.6266 47.6475 29.3559C47.6475 29.0859 47.5575 28.8598 47.3775 28.6791C47.1968 28.4991 46.975 28.4091 46.7122 28.4091C46.4487 28.4091 46.2269 28.4991 46.0469 28.6791C45.8662 28.8591 45.7762 29.0852 45.7762 29.3559C45.7762 29.6259 45.8662 29.852 46.0469 30.0327C46.2269 30.2127 46.4487 30.3027 46.7122 30.3027Z" fill="white"/>
<path d="M51.2323 26.7466H51.8803V30.8542H51.2323V30.4236C50.9861 30.7663 50.639 30.9334 50.1847 30.9334C49.7714 30.9334 49.4244 30.7836 49.1306 30.4783C48.8362 30.1731 48.6936 29.7951 48.6936 29.358C48.6936 28.921 48.8362 28.543 49.1306 28.2377C49.4251 27.9324 49.7722 27.7834 50.1847 27.7834C50.639 27.7834 50.9861 27.9504 51.2323 28.2867V26.7466ZM50.2855 30.3156C50.5562 30.3156 50.7816 30.2256 50.9623 30.0456C51.1423 29.8613 51.2323 29.6323 51.2323 29.3559C51.2323 29.0794 51.1423 28.8526 50.9623 28.6726C50.7816 28.4861 50.5562 28.3983 50.2855 28.3983C50.0155 28.3983 49.7894 28.4883 49.6094 28.6726C49.4294 28.8526 49.3394 29.0787 49.3394 29.3559C49.3394 29.6323 49.4294 29.8591 49.6094 30.0456C49.7894 30.2256 50.0155 30.3156 50.2855 30.3156Z" fill="white"/>
<path d="M52.8997 30.4762C52.6009 30.1709 52.4512 29.7994 52.4512 29.3559C52.4512 28.9124 52.6009 28.5344 52.8997 28.2356C53.205 27.9303 53.583 27.7805 54.0309 27.7805C54.6133 27.7805 55.1267 28.0793 55.3665 28.5538L54.8085 28.8764C54.6702 28.5884 54.3822 28.4148 54.0244 28.4148C53.7609 28.4148 53.5391 28.5048 53.3591 28.6848C53.1856 28.8648 53.0956 29.0866 53.0956 29.3544C53.0956 29.6223 53.1856 29.8462 53.3591 30.024C53.5391 30.204 53.7609 30.294 54.0244 30.294C54.3779 30.294 54.6767 30.114 54.8214 29.8325L55.3794 30.1508C55.1224 30.6296 54.6133 30.9284 54.0309 30.9284C53.583 30.9305 53.205 30.7815 52.8997 30.4762Z" fill="white"/>
<path d="M58.1881 27.8596H58.8361V30.8534H58.1881V30.4228C57.9426 30.7656 57.5949 30.9326 57.1405 30.9326C56.7273 30.9326 56.3802 30.7836 56.0865 30.4783C55.792 30.173 55.6494 29.795 55.6494 29.358C55.6494 28.9209 55.792 28.5429 56.0865 28.2376C56.3809 27.9324 56.728 27.7833 57.1405 27.7833C57.5949 27.7833 57.9426 27.9504 58.1881 28.2866V27.8596ZM57.2421 30.3156C57.5121 30.3156 57.7381 30.2256 57.9181 30.0456C58.0981 29.8612 58.1881 29.6323 58.1881 29.3558C58.1881 29.0793 58.0981 28.8525 57.9181 28.6725C57.7381 28.486 57.5121 28.3982 57.2421 28.3982C56.9713 28.3982 56.7453 28.4882 56.5653 28.6725C56.3853 28.8525 56.2953 29.0786 56.2953 29.3558C56.2953 29.6323 56.3853 29.8591 56.5653 30.0456C56.7453 30.2256 56.9713 30.3156 57.2421 30.3156Z" fill="white"/>
<path d="M60.7117 29.0743C61.1732 29.1751 61.773 29.3688 61.76 30.0081C61.76 30.2961 61.6456 30.5222 61.4238 30.6849C61.202 30.8477 60.9277 30.9312 60.5915 30.9312C59.9982 30.9312 59.5612 30.6677 59.3704 30.2306L59.9284 29.9081C60.0292 30.1961 60.2509 30.3386 60.5936 30.3386C60.9364 30.3386 61.1034 30.2241 61.1034 30.0024C61.1034 29.8116 60.8507 29.6971 60.5346 29.6179C60.086 29.5034 59.4805 29.3234 59.4935 28.6956C59.4935 28.4213 59.595 28.1995 59.806 28.0303C60.0162 27.8611 60.2783 27.7776 60.59 27.7776C61.0861 27.7776 61.4879 28.0101 61.6967 28.4011L61.1524 28.7064C61.0508 28.4781 60.8579 28.3658 60.59 28.3658C60.3438 28.3658 60.153 28.4731 60.153 28.6819C60.153 28.8799 60.4057 28.9807 60.7153 29.0707L60.7117 29.0743Z" fill="white"/>
<path d="M64.0073 28.4818H63.2649V29.9182C63.2649 30.3027 63.5155 30.2962 64.0073 30.2717V30.8535C63.0187 30.9744 62.6169 30.7044 62.6169 29.9204V28.484H62.0654V27.8604H62.6169V27.2146L63.2649 27.0238V27.8626H64.0073V28.4861V28.4818Z" fill="white"/>
<path d="M58.3732 20.0319C58.5864 19.4631 59.1206 19.1772 59.7261 19.1772V20.4603C59.3791 20.4164 59.058 20.4869 58.7815 20.6734C58.505 20.8599 58.3725 21.163 58.3725 21.5914V23.7197H57.2241V19.2672H58.3725V20.034V20.0319H58.3732Z" fill="white"/>
<path d="M61.2375 21.9644C61.3895 22.5245 61.8063 22.801 62.4939 22.801C62.931 22.801 63.2694 22.6498 63.4911 22.3553L64.4156 22.8888C63.9786 23.5217 63.3306 23.8421 62.4738 23.8421C61.7358 23.8421 61.1475 23.6204 60.7011 23.1747C60.2555 22.729 60.0337 22.1688 60.0337 21.492C60.0337 20.8152 60.2555 20.2644 60.6932 19.818C61.1303 19.3637 61.6991 19.1412 62.3845 19.1412C63.0347 19.1412 63.5768 19.363 63.9966 19.818C64.4243 20.2724 64.6381 20.8239 64.6381 21.492C64.6381 21.6432 64.6208 21.7952 64.5942 21.9644H61.2375ZM63.4911 21.073C63.3572 20.4668 62.9108 20.1744 62.3867 20.1744C61.7718 20.1744 61.3542 20.5042 61.2203 21.073H63.4911Z" fill="white"/>
<path d="M66.3574 21.9644C66.5086 22.5245 66.9262 22.801 67.6138 22.801C68.0508 22.801 68.3892 22.6498 68.611 22.3553L69.5355 22.8888C69.0977 23.5217 68.4497 23.8421 67.5936 23.8421C66.8556 23.8421 66.2674 23.6204 65.821 23.1747C65.3753 22.729 65.1528 22.1688 65.1528 21.492C65.1528 20.8152 65.3746 20.2644 65.8116 19.818C66.2494 19.3637 66.8175 19.1412 67.5029 19.1412C68.1531 19.1412 68.6952 19.363 69.115 19.818C69.5434 20.2724 69.7565 20.8239 69.7565 21.492C69.7565 21.6432 69.7385 21.7952 69.7126 21.9644H66.3574ZM68.611 21.073C68.4771 20.4668 68.0307 20.1744 67.5058 20.1744C66.8909 20.1744 66.4733 20.5042 66.3401 21.073H68.611Z" fill="white"/>
<path d="M72.3717 21.0205C73.0219 21.1544 73.8679 21.4662 73.8592 22.4173C73.8592 22.8723 73.69 23.228 73.343 23.4757C73.0046 23.7176 72.5762 23.84 72.0693 23.84C71.1506 23.84 70.5292 23.4843 70.2002 22.7794L71.1974 22.2193C71.3313 22.6016 71.6143 22.7967 72.0693 22.7967C72.4776 22.7967 72.6842 22.6714 72.6842 22.4144C72.6842 22.1725 72.3285 22.0407 71.8735 21.9248C71.2147 21.7556 70.3867 21.4791 70.3867 20.5539C70.3867 20.1169 70.5465 19.7698 70.8676 19.5214C71.1974 19.2622 71.597 19.137 72.078 19.137C72.7987 19.137 73.4222 19.4754 73.7692 20.0816L72.79 20.6151C72.6468 20.312 72.4077 20.1601 72.078 20.1601C71.7835 20.1601 71.5617 20.3026 71.5617 20.5244C71.5617 20.7663 71.9174 20.8981 72.3724 21.014V21.0205H72.3717Z" fill="white"/>
<path d="M44.8978 17.4529H46.0462V23.7169H44.8978V23.192C44.5594 23.629 44.0785 23.8422 43.455 23.8422C42.8314 23.8422 42.3411 23.6204 41.9156 23.1654C41.4958 22.7103 41.2827 22.1509 41.2827 21.4914C41.2827 20.8318 41.4958 20.2789 41.9156 19.8267C42.344 19.3717 42.8602 19.1413 43.455 19.1413C44.0504 19.1413 44.5602 19.3544 44.8978 19.7914V17.4543V17.4529ZM43.6702 22.7463C44.0259 22.7463 44.3204 22.6318 44.5508 22.3993C44.7812 22.1595 44.8978 21.8564 44.8978 21.4921C44.8978 21.1278 44.7812 20.8246 44.5508 20.5914C44.3204 20.3516 44.0259 20.2357 43.6702 20.2357C43.3146 20.2357 43.0201 20.3523 42.781 20.5914C42.5506 20.8239 42.434 21.1249 42.434 21.4921C42.434 21.8586 42.5506 22.1595 42.781 22.3993C43.0201 22.6326 43.3146 22.7463 43.6702 22.7463Z" fill="white"/>
<path d="M47.7663 21.9644C47.9175 22.5245 48.3351 22.801 49.0227 22.801C49.4598 22.801 49.7982 22.6498 50.0199 22.3553L50.9444 22.8888C50.5066 23.5217 49.8594 23.8421 49.0026 23.8421C48.2646 23.8421 47.6756 23.6204 47.2299 23.1747C46.7842 22.729 46.5618 22.1688 46.5618 21.492C46.5618 20.8152 46.7835 20.2644 47.2206 19.818C47.6583 19.3637 48.2271 19.1412 48.9118 19.1412C49.562 19.1412 50.1042 19.363 50.5239 19.818C50.9523 20.2724 51.1654 20.8239 51.1654 21.492C51.1654 21.6432 51.1474 21.7952 51.1215 21.9644H47.7663ZM50.0199 21.073C49.886 20.4668 49.4396 20.1744 48.9147 20.1744C48.2998 20.1744 47.8822 20.5042 47.749 21.073H50.0199Z" fill="white"/>
<path d="M55.3263 19.265H56.4488V23.5044C56.4488 24.1898 56.2184 24.7147 55.7641 25.0812C55.309 25.4455 54.7669 25.6241 54.1253 25.6241C53.1634 25.6241 52.4074 25.2504 52.015 24.539L52.9949 23.9789C53.2167 24.3965 53.6098 24.6024 54.1606 24.6024C54.8813 24.6024 55.327 24.2093 55.327 23.5065V23.0256C54.9893 23.4799 54.5163 23.7024 53.9014 23.7024C53.2865 23.7024 52.7437 23.4806 52.3153 23.0436C51.8984 22.5979 51.6831 22.055 51.6831 21.4229C51.6831 20.79 51.8962 20.2565 52.3246 19.8129C52.753 19.3673 53.2779 19.1455 53.9014 19.1455C54.5257 19.1455 54.9872 19.3673 55.327 19.8223V19.2686V19.265H55.3263ZM54.9706 20.5567C54.7402 20.3263 54.4457 20.2097 54.0814 20.2097C53.7164 20.2097 53.4219 20.3263 53.1829 20.5567C52.9525 20.7785 52.8358 21.0729 52.8358 21.42C52.8358 22.1313 53.3607 22.6389 54.0836 22.6389C54.8057 22.6389 55.3313 22.1313 55.3313 21.42C55.3313 21.0729 55.2147 20.7785 54.9757 20.5567H54.9706Z" fill="white"/>
<path d="M43.7142 13.4619C44.3644 13.5958 45.2104 13.9076 45.201 14.8587C45.201 15.313 45.0326 15.6694 44.6848 15.9171C44.3464 16.159 43.918 16.2814 43.4111 16.2814C42.4931 16.2814 41.8718 15.9257 41.542 15.2208L42.5392 14.6607C42.6731 15.043 42.9568 15.2381 43.4111 15.2381C43.8194 15.2381 44.026 15.1128 44.026 14.8558C44.026 14.6139 43.6703 14.4821 43.2153 14.3662C42.5565 14.197 41.7285 13.9205 41.7285 12.9953C41.7285 12.5583 41.889 12.2112 42.2094 11.9628C42.5392 11.7036 42.9388 11.5784 43.4198 11.5784C44.1405 11.5784 44.764 11.9168 45.111 12.523L44.1318 13.0565C43.9893 12.7534 43.7495 12.6015 43.4205 12.6015C43.126 12.6015 42.9042 12.744 42.9042 12.9658C42.9042 13.2077 43.2599 13.3395 43.715 13.4554V13.4619H43.7142Z" fill="white"/>
<path d="M51.9704 16.1596H50.6442L49.6823 14.8068L48.711 16.1596H47.384L49.0141 13.8888L47.4568 11.7079H48.7837L49.6823 12.9643L50.5801 11.7079H51.8984L50.3411 13.8801L51.9704 16.1596Z" fill="white"/>
<path d="M55.3291 12.8117H54.3233V14.6636C54.3233 15.1445 54.6703 15.1532 55.3291 15.1179V16.159C53.7523 16.3369 53.1749 15.8825 53.1749 14.6636V12.8117H52.3994V11.7073H53.1749V10.8087L54.324 10.4617V11.7073H55.3298V12.8117H55.3291Z" fill="white"/>
<path d="M64.5322 12.8117H63.5264V14.6636C63.5264 15.1445 63.8734 15.1532 64.5322 15.1179V16.159C62.9547 16.3369 62.3772 15.8825 62.3772 14.6636V12.8117H61.6018V11.7073H62.3772V10.8087L63.5264 10.4617V11.7073H64.5322V12.8117Z" fill="white"/>
<path d="M68.9861 12.0737C69.3072 12.4035 69.4671 12.8491 69.4671 13.4266V16.159H68.3187V13.567C68.3187 12.9694 67.9709 12.649 67.4374 12.649C66.8405 12.649 66.4575 13.0133 66.4575 13.7542V16.1568H65.3091V9.89282H66.4575V12.2033C66.734 11.7857 67.1782 11.5798 67.7837 11.5798C68.274 11.5798 68.6736 11.7403 68.9854 12.0694V12.0737H68.9861Z" fill="white"/>
<path d="M71.3937 12.474C71.6069 11.9052 72.1404 11.6194 72.7466 11.6194V12.9024C72.3989 12.8585 72.0785 12.9291 71.802 13.1155C71.5255 13.302 71.393 13.6051 71.393 14.0335V16.1619H70.2439V11.7094H71.393V12.4762V12.474H71.3937Z" fill="white"/>
<path d="M74.2558 14.4065C74.4077 14.9667 74.8246 15.2431 75.5122 15.2431C75.9493 15.2431 76.2877 15.0912 76.5094 14.7975L77.4339 15.331C76.9969 15.9639 76.3489 16.2843 75.4921 16.2843C74.7541 16.2843 74.1658 16.0625 73.7194 15.6168C73.2738 15.1711 73.0513 14.611 73.0513 13.9342C73.0513 13.2574 73.273 12.7066 73.7101 12.2602C74.1478 11.8059 74.7159 11.5834 75.4014 11.5834C76.0515 11.5834 76.5937 11.8051 77.0134 12.2602C77.4411 12.7152 77.655 13.266 77.655 13.9342C77.655 14.0854 77.6377 14.2373 77.611 14.4065H74.2558ZM76.5094 13.5151C76.3755 12.9089 75.9291 12.6166 75.405 12.6166C74.7901 12.6166 74.3725 12.9463 74.2385 13.5151H76.5094Z" fill="white"/>
<path d="M79.3757 14.4065C79.5269 14.9667 79.9445 15.2431 80.6321 15.2431C81.0692 15.2431 81.4076 15.0912 81.6293 14.7975L82.5538 15.331C82.1168 15.9639 81.4688 16.2843 80.6127 16.2843C79.8747 16.2843 79.2857 16.0625 78.84 15.6168C78.3944 15.1711 78.1719 14.611 78.1719 13.9342C78.1719 13.2574 78.3936 12.7066 78.8307 12.2602C79.2677 11.8059 79.8365 11.5834 80.522 11.5834C81.1714 11.5834 81.7143 11.8051 82.134 12.2602C82.5624 12.7152 82.7756 13.266 82.7756 13.9342C82.7756 14.0854 82.7583 14.2373 82.7316 14.4065H79.3757ZM81.6293 13.5151C81.4954 12.9089 81.049 12.6166 80.5241 12.6166C79.9092 12.6166 79.4916 12.9463 79.3584 13.5151H81.6293Z" fill="white"/>
<path d="M60.4794 11.7073L58.4216 17.9432H57.189L57.7621 16.2145L55.8469 11.7073H57.0788L58.3021 14.5866L59.2532 11.7073H60.4794Z" fill="white"/>
<path d="M46.8679 11.7073H45.7188V16.1598H46.8679V11.7073Z" fill="white"/>
<path d="M46.862 9.95471H45.7129V11.1031H46.862V9.95471Z" fill="white"/>
</g>
<defs>
<clipPath id="clip0_49_42282">
<rect width="82.7755" height="36" fill="white"/>
</clipPath>
</defs>
</svg>
