<svg width="20" height="20" viewBox="0 0 20 20" fill="none" xmlns="http://www.w3.org/2000/svg">
<g clip-path="url(#clip0_34_9033)">
<path fill-rule="evenodd" clip-rule="evenodd" d="M3.33325 9.99996C3.33325 9.53972 3.70635 9.16663 4.16659 9.16663H15.8333C16.2935 9.16663 16.6666 9.53972 16.6666 9.99996C16.6666 10.4602 16.2935 10.8333 15.8333 10.8333H4.16659C3.70635 10.8333 3.33325 10.4602 3.33325 9.99996Z" fill="#16363F"/>
<path fill-rule="evenodd" clip-rule="evenodd" d="M16.4224 9.4107C16.7479 9.73614 16.7479 10.2638 16.4224 10.5892L13.0891 13.9225C12.7637 14.248 12.236 14.248 11.9106 13.9225C11.5851 13.5971 11.5851 13.0695 11.9106 12.744L15.2439 9.4107C15.5694 9.08527 16.097 9.08527 16.4224 9.4107Z" fill="#16363F"/>
<path fill-rule="evenodd" clip-rule="evenodd" d="M11.9106 6.07739C12.236 5.75195 12.7637 5.75195 13.0891 6.07739L16.4224 9.41072C16.7479 9.73616 16.7479 10.2638 16.4224 10.5892C16.097 10.9147 15.5694 10.9147 15.2439 10.5892L11.9106 7.2559C11.5851 6.93046 11.5851 6.40283 11.9106 6.07739Z" fill="#16363F"/>
</g>
<defs>
<clipPath id="clip0_34_9033">
<rect width="20" height="20" fill="white"/>
</clipPath>
</defs>
</svg>
