<svg width="169" height="120" viewBox="0 0 169 120" fill="none" xmlns="http://www.w3.org/2000/svg">
<g opacity="0.4">
<path d="M100.994 16.8353C79.4051 17.0441 67.3271 33.0702 67.3271 50.502C67.3271 66.3497 78.1434 79.2744 92.5771 83.1166V58.9187C92.5872 54.2701 96.3453 50.4919 100.994 50.502C105.642 50.5121 109.421 54.2701 109.41 58.9187V73.3853C114.349 64.366 126.842 54.2113 143.077 51.2915C138.689 30.3887 120.618 16.6451 100.994 16.8353ZM51.2833 58.9187C30.3805 63.3071 16.6369 81.3785 16.8271 101.002C17.0359 122.591 33.0621 134.669 50.4938 134.669C66.3415 134.669 79.2662 123.853 83.1084 109.419H58.9105C54.262 109.41 50.4837 105.648 50.4938 101.002C50.5039 96.356 54.262 92.5769 58.9105 92.5853H73.377C64.3577 87.6448 54.203 75.1527 51.2833 58.9187ZM151.494 67.3353C135.646 67.3353 122.721 78.1516 118.879 92.5853H143.077C147.726 92.5938 151.504 96.356 151.494 101.002C151.484 105.648 147.726 109.427 143.077 109.419H128.611C137.63 114.359 147.785 126.85 150.704 143.085C171.607 138.7 185.351 120.63 185.16 101.002C184.952 79.4132 168.926 67.3353 151.494 67.3353ZM109.41 118.887V143.085C109.4 147.731 105.642 151.51 100.994 151.502C96.3453 151.494 92.567 147.731 92.5771 143.085V128.617C87.6382 137.64 75.1454 147.79 58.9105 150.711C63.2989 171.618 81.3695 185.362 100.994 185.169C122.583 184.958 134.66 168.933 134.66 151.502C134.66 135.653 123.844 122.734 109.41 118.887Z" fill="black"/>
<circle cx="101" cy="101" r="8.41667" fill="black" fill-opacity="0.4"/>
</g>
</svg>
