<svg width="1440" height="682" viewBox="0 0 1440 682" fill="none" xmlns="http://www.w3.org/2000/svg">
<rect width="1440" height="682" fill="url(#paint0_linear_54_41850)"/>
<mask id="mask0_54_41850" style="mask-type:alpha" maskUnits="userSpaceOnUse" x="0" y="0" width="1440" height="682">
<rect width="1440" height="682" fill="url(#paint1_linear_54_41850)"/>
</mask>
<g mask="url(#mask0_54_41850)">
<g opacity="0.2">
<path d="M-133.911 38.5685C-20.7624 29.4261 59.0927 0.347096 111.425 -24.828C164.345 -50.2867 202.459 -78.2146 272.103 -93.2296C348.917 -109.913 399.108 -102.439 418.959 -98.2345C446.482 -92.3954 444.771 -88.4248 489.795 -74.8779C576.285 -48.852 592.716 -60.4302 631.468 -43.1796C695.722 -14.5845 676.562 28.8088 743.77 76.9401C792.44 111.808 873.02 139.553 945.913 120.317C1014.56 102.199 1022.28 56.7033 1094.5 50.2468C1124.16 47.5942 1148.83 53.4834 1198.16 65.2618C1261.38 80.2768 1303.83 98.7953 1320.83 105.302C1371.19 124.604 1452.48 136.75 1585.17 98.6284" stroke="#CAE0E0" stroke-width="0.876987" stroke-miterlimit="10"/>
<path d="M-134.671 53.2827C-25.22 45.3915 56.6047 19.0653 113.689 -7.02741C160.06 -28.5155 195.427 -52.0723 244.166 -68.9058C254.826 -72.5761 266.056 -76.1296 278.15 -79.1994C354.36 -98.5186 404.36 -95.3321 425.231 -93.3802C453.22 -90.7776 453.22 -87.8079 497.345 -74.6448C528.444 -65.3856 550.594 -60.097 567.75 -56.6269C596.914 -50.7377 611.513 -50.3373 634.526 -39.0093C643.113 -34.8172 651.171 -29.6839 658.542 -23.7107C692.629 3.90015 691.178 38.9017 747.726 76.0054C796.949 108.304 876.994 132.729 948.643 113.626C954.319 112.109 959.913 110.316 965.402 108.254C1020.79 87.4168 1033.23 50.7635 1096.71 45.0078C1103.4 44.392 1110.12 44.2081 1116.84 44.4573C1139.4 45.2247 1162.72 50.6634 1199.66 59.4722C1260.86 74.1535 1302.65 92.3216 1321.4 99.5121C1335.13 104.73 1349.29 108.826 1363.73 111.758C1413.69 122.035 1484.32 123.102 1583.68 96.8762" stroke="#CAE0E0" stroke-width="0.876987" stroke-miterlimit="10"/>
<path d="M-135.428 69.2989C-29.6919 62.6256 54.1888 39.2689 115.955 11.9417C165.005 -9.7466 202.012 -34.5213 249.853 -52.2056C260.772 -56.2596 272.089 -60.3637 284.234 -63.8839C359.839 -85.8558 409.58 -88.5085 431.557 -87.2405C459.874 -85.5722 461.757 -85.8892 504.916 -73.1265C535.134 -64.1675 557.197 -58.1115 574.025 -53.8572C602.376 -46.7335 616.008 -45.2987 637.535 -33.537C645.738 -29.0073 653.448 -23.6919 660.549 -17.6712C693.479 9.75618 695.103 42.6557 751.72 76.4227C801.496 106.136 881.005 127.24 951.41 108.271C957.371 106.603 962.882 104.934 968.048 102.932C1025.18 81.7113 1037.83 46.7597 1098.97 41.2042C1105.61 40.5731 1112.28 40.3669 1118.95 40.5869C1141.89 41.2376 1165.18 46.5262 1201.22 55.2515C1260.41 69.5324 1301.51 87.4003 1322.02 95.1079C1335.64 100.278 1349.67 104.385 1363.97 107.387C1413.49 117.897 1483.79 120.116 1582.17 96.4927" stroke="#CAE0E0" stroke-width="0.876987" stroke-miterlimit="10"/>
<path d="M-136.168 86.3996C-34.1462 81.0109 51.7386 60.407 118.238 32.0788C169.897 10.0568 208.598 -15.8524 255.506 -34.4042C266.701 -38.8419 278.121 -43.4799 290.285 -47.4672C365.285 -72.0584 414.68 -77.2135 437.849 -80.0163C466.512 -83.4698 470.261 -82.8859 512.469 -70.5235C541.84 -61.8983 563.817 -55.0581 580.403 -50.0198C607.925 -41.6781 620.624 -39.1756 640.666 -26.9968C648.422 -22.1221 655.739 -16.625 662.539 -10.5637C694.311 16.6634 699.114 47.4441 755.663 77.8578C806.06 104.985 884.965 122.786 954.125 103.934C960.034 102.265 965.511 100.597 970.642 98.6451C1029.49 76.9568 1042.39 43.7738 1101.17 38.2516C1107.76 37.6052 1114.39 37.3767 1121.01 37.5676C1144.33 38.0848 1167.65 43.2566 1202.74 51.8151C1259.9 65.6789 1300.34 83.2298 1322.6 91.5881C1336.13 96.6802 1350.05 100.79 1364.22 103.884C1413.28 114.628 1483.26 118.014 1580.63 96.9768" stroke="#CAE0E0" stroke-width="0.876987" stroke-miterlimit="10"/>
<path d="M-136.929 103.533C-38.6043 99.3957 49.2501 81.5779 120.501 52.232C174.786 29.8597 215.163 2.79937 261.172 -16.5866C272.627 -21.4081 284.133 -26.5966 296.348 -31.0344C370.744 -58.1948 419.69 -67.4373 444.155 -72.7426C473.059 -79.0155 478.709 -79.833 520.036 -67.8711C548.63 -59.5294 570.416 -51.9552 586.726 -46.1828C613.419 -36.6399 625.168 -33.0364 643.741 -20.4572C651.036 -15.249 657.962 -9.57509 664.473 -3.47355C695.106 23.52 703.088 52.1986 759.584 79.359C810.604 103.883 888.886 118.398 956.82 99.6793C962.66 98.011 968.102 96.3426 973.216 94.4241C1033.79 72.2853 1046.92 41.0375 1103.35 35.4486C1109.89 34.8108 1116.47 34.5601 1123.04 34.6978C1146.71 35.0982 1169.97 40.1366 1204.25 48.5283C1259.4 62.0084 1299.17 79.2589 1323.17 88.2179C1336.61 93.2603 1350.4 97.3802 1364.44 100.547C1413.08 111.541 1482.72 116.062 1579.11 97.6439" stroke="#CAE0E0" stroke-width="0.876987" stroke-miterlimit="10"/>
<path d="M-137.651 114.578C-43.0243 111.691 46.817 96.6765 122.802 66.3128C179.696 43.5735 221.766 15.312 266.876 -4.84145C278.573 -10.0633 290.201 -15.7356 302.45 -20.6739C376.206 -50.4035 424.755 -63.6501 450.446 -71.5746C479.61 -80.5503 487.264 -82.9026 527.589 -71.3244C549.858 -64.9073 571.717 -57.2308 593.052 -48.3348C618.968 -37.6074 629.732 -32.8694 646.784 -19.9732C654.231 -14.3176 660.139 -8.29489 666.532 -2.43905C696.024 24.2542 707.203 50.9475 763.595 74.7713C815.289 96.6764 892.915 107.921 959.605 89.3358C965.393 87.6675 970.8 85.9991 975.88 84.1139C1038.2 61.5748 1051.55 31.9786 1105.63 26.5565C1112.12 25.9167 1118.65 25.6493 1125.17 25.7557C1149.22 26.0727 1172.44 30.9276 1205.79 39.1024C1258.91 52.1487 1298.03 69.1323 1323.76 78.6919C1337.11 83.6807 1350.8 87.805 1364.72 91.0375C1412.91 102.282 1482.2 107.971 1577.61 92.1386" stroke="#CAE0E0" stroke-width="0.876987" stroke-miterlimit="10"/>
<path d="M-138.45 122.452C-47.5372 120.784 44.291 108.555 125.027 77.2071C184.53 54.1007 228.258 24.6046 272.505 3.80052C284.461 -1.83844 296.175 -8.01126 308.476 -13.4166C381.68 -45.6655 429.848 -62.8993 456.749 -73.4765C486.12 -85.0714 495.761 -89.042 535.153 -77.8642C557.225 -71.6001 578.703 -63.5295 599.355 -53.7402C624.424 -41.8617 634.272 -35.9558 649.839 -22.6091C656.75 -16.7199 662.192 -10.447 668.533 -4.52445C696.902 22.002 711.294 46.393 767.548 67.0636C819.95 86.3161 896.902 94.3241 962.348 75.8557C968.067 74.1874 973.423 72.5191 978.503 70.6672C1042.57 47.7777 1056.2 19.8832 1107.86 14.6614C1114.3 14.0048 1120.78 13.7151 1127.26 13.7938C1151.65 13.994 1174.87 18.6987 1207.3 26.7734C1258.41 39.4361 1296.85 56.1027 1324.34 66.2962C1337.6 71.2216 1351.17 75.3503 1364.96 78.6585C1412.71 90.1533 1481.68 97.0101 1576.1 83.7469" stroke="#CAE0E0" stroke-width="0.876987" stroke-miterlimit="10"/>
<path d="M-139.193 130.444C-51.995 130.06 41.7855 120.55 127.308 88.2182C189.402 64.7281 234.772 33.9641 278.155 12.4092C290.37 6.31983 302.204 -0.353498 314.54 -6.19265C387.156 -40.9273 434.98 -62.0817 463.038 -75.4284C492.806 -89.5758 504.261 -95.2148 542.703 -84.4373C564.615 -78.2388 585.739 -69.6881 605.678 -58.9453C629.866 -45.949 638.816 -38.8085 652.914 -25.1282C659.237 -18.9887 664.248 -12.5156 670.519 -6.47627C697.783 19.7666 715.44 41.9887 771.522 59.4728C824.649 76.0394 900.876 80.8275 965.026 62.5092C970.693 60.8409 976.014 59.1725 981.059 57.3374C1046.87 33.9807 1060.66 7.83801 1110.03 2.6495C1116.43 1.99255 1122.85 1.68064 1129.28 1.71523C1154.06 1.71523 1177.24 6.35319 1208.76 14.2944C1257.86 26.5233 1295.61 42.923 1324.86 53.7004C1338.03 58.5841 1351.48 62.7284 1365.15 66.1128C1412.45 77.7911 1481.1 85.8158 1574.51 75.1885" stroke="#CAE0E0" stroke-width="0.876987" stroke-miterlimit="10"/>
<path d="M-139.954 138.468C-56.453 139.335 39.2971 132.579 129.57 99.2621C194.273 75.3883 241.285 43.3397 283.821 21.1342C296.261 14.6444 308.234 7.5206 320.587 1.11421C392.633 -36.1062 440.145 -61.1812 469.343 -77.2973C499.475 -93.9806 512.761 -101.321 550.27 -90.9442C572.015 -84.8173 592.786 -75.8356 612.001 -64.251C635.446 -50.1202 643.342 -41.7452 655.971 -27.7312C661.725 -21.3248 666.338 -14.6849 672.523 -8.52873C698.68 17.4472 719.569 37.4505 775.478 51.7981C829.365 65.6286 904.849 67.2635 967.807 49.062C973.422 47.3937 978.709 45.7254 983.719 43.9403C1051.29 20.2333 1065.27 -4.24112 1112.31 -9.32952C1118.66 -9.98802 1125.04 -10.3222 1131.42 -10.3305C1156.56 -10.4807 1179.8 -5.94282 1210.36 1.8316C1257.42 13.6601 1294.52 29.7761 1325.51 41.1541C1338.59 46.0043 1351.92 50.1755 1365.46 53.6499C1412.33 65.6286 1480.65 74.7543 1573.08 66.7297" stroke="#CAE0E0" stroke-width="0.876987" stroke-miterlimit="10"/>
<path d="M-140.714 146.459C-60.9106 148.528 36.8437 144.507 131.868 110.223C199.249 85.9487 247.798 52.5988 289.522 29.776C302.204 22.8358 314.298 15.2616 326.686 8.38803C398.144 -31.2682 445.362 -60.2471 475.684 -79.216C506.247 -98.3517 521.313 -107.461 557.871 -97.4842C579.466 -91.3785 599.889 -81.9236 618.342 -69.4896C640.975 -54.2744 647.886 -44.5981 659.047 -30.2672C664.23 -23.5939 668.394 -16.8037 674.596 -10.5141C699.683 15.1781 723.836 32.8624 779.538 44.1737C834.185 55.2348 908.909 53.7499 970.64 35.6819C976.186 34.0136 981.439 32.3453 986.432 30.6769C1055.75 6.60292 1069.93 -16.2032 1114.61 -21.1581C1120.92 -21.8515 1127.27 -22.2079 1133.62 -22.2258C1159.12 -22.3927 1182.27 -18.1051 1212 -10.5475C1257.04 0.880545 1293.46 16.713 1326.22 28.6916C1338.06 33.0293 1351.17 37.3169 1365.84 41.154C1412.26 53.3662 1480.25 63.6598 1571.68 58.2211" stroke="#CAE0E0" stroke-width="0.876987" stroke-miterlimit="10"/>
<path d="M-141.475 154.217C-65.455 157.554 34.2861 156.286 134.096 121.051C204 96.376 254.225 61.6914 295.154 38.2681C308.06 30.8774 320.292 22.8694 332.715 15.4954C403.655 -26.5966 450.614 -59.4627 481.938 -81.2678C512.933 -102.956 529.761 -113.733 565.387 -104.157C586.855 -98.0672 606.954 -88.1537 624.647 -74.9281C646.503 -58.6118 652.291 -47.6175 662.087 -33.003C666.7 -26.0627 670.449 -19.1058 676.513 -12.6994C700.529 12.6759 727.93 28.1413 783.407 36.3495C838.884 44.5577 912.796 40.0198 973.283 22.0853C978.778 20.417 983.995 18.7486 988.954 17.0803C1060.03 -7.36074 1074.42 -28.4985 1116.8 -33.3366C1123.05 -34.0413 1129.33 -34.4145 1135.62 -34.4544C1161.54 -34.7714 1184.62 -30.6006 1213.37 -23.1432C1256.4 -12.1322 1292.13 3.43336 1326.65 15.9959C1338.44 20.3002 1351.45 24.5711 1365.94 28.4917C1411.92 40.9374 1479.57 52.3822 1570.02 49.5627" stroke="#CAE0E0" stroke-width="0.876987" stroke-miterlimit="10"/>
<path d="M-142.214 161.875C-69.8403 166.496 31.7841 167.914 136.38 131.745C208.944 106.72 260.672 70.617 300.807 46.6597C313.955 38.8019 326.325 30.3768 338.817 22.5023C409.204 -22.0421 455.922 -58.7454 488.23 -83.4867C519.726 -107.544 538.334 -120.19 572.888 -110.997C595.832 -104.891 616.668 -92.2621 630.922 -80.5337C652.018 -63.1497 656.838 -50.8041 665.114 -35.9059C669.122 -28.6987 672.474 -21.575 678.452 -15.0351C701.413 9.98984 732.011 23.153 787.298 28.3415C843.5 33.6634 916.704 26.1226 975.947 8.3215C981.372 6.65317 986.555 4.98484 991.497 3.31651C1064.32 -21.5082 1078.9 -40.9776 1118.9 -45.6823C1125.1 -46.3974 1131.33 -46.7929 1137.58 -46.8668C1163.82 -47.3507 1186.9 -43.2799 1214.84 -35.9726C1255.85 -25.3621 1290.86 -10.0802 1327.14 3.08295C1338.87 7.33719 1351.78 11.6248 1366.08 15.5954C1411.63 28.2914 1478.96 40.8873 1568.4 40.6204" stroke="#CAE0E0" stroke-width="0.876987" stroke-miterlimit="10"/>
<path d="M-142.982 169.432C-74.3052 175.321 29.2024 179.242 138.636 142.322C213.671 116.696 267.092 79.4257 306.466 54.8846C319.822 46.543 332.382 37.7175 344.839 29.3425C414.743 -17.5543 461.235 -58.2282 494.529 -85.7723C526.543 -112.265 546.74 -126.68 580.5 -117.904C602.632 -112.099 623.364 -98.802 637.29 -86.2061C657.625 -67.7543 661.288 -54.074 668.216 -38.8755C671.671 -31.4014 674.591 -24.1442 680.5 -17.4709C702.408 7.28714 736.254 18.0312 791.333 20.3502C848.348 22.7359 920.757 12.2421 978.756 -5.44222C984.135 -7.09943 989.278 -8.76776 994.185 -10.4472C1068.79 -35.6056 1083.56 -53.4401 1121.21 -58.0113C1127.35 -58.7457 1133.54 -59.1634 1139.73 -59.2626C1166.33 -59.8798 1189.42 -55.9259 1216.46 -48.7854C1255.43 -38.5919 1289.8 -23.5102 1327.86 -9.81324C1339.54 -5.57568 1352.32 -1.32144 1366.47 2.71592C1411.57 15.6622 1478.57 29.4092 1567.03 31.7782" stroke="#CAE0E0" stroke-width="0.876987" stroke-miterlimit="10"/>
<path d="M-143.735 176.873C-78.7732 183.997 26.7213 190.67 140.906 152.782C218.55 126.773 273.543 88.0676 312.14 63.0427C325.703 54.2506 338.402 44.9913 350.91 36.1158C420.313 -13.1667 466.667 -57.7444 500.824 -88.1915C533.392 -117.137 555.247 -133.387 587.988 -124.995C609.325 -119.506 629.971 -105.525 643.534 -92.0286C663.143 -72.5092 665.648 -57.4608 671.177 -41.9787C673.976 -34.221 676.585 -26.8136 682.39 -20.0235C703.382 4.40086 740.459 14.4108 795.314 12.1586C852.985 9.78956 924.754 -1.8387 981.527 -19.3895C986.849 -21.0467 991.951 -22.7151 996.835 -24.3945C1073.23 -49.7865 1088.16 -66.1028 1123.46 -70.5405C1129.56 -71.2809 1135.7 -71.7152 1141.84 -71.8418C1168.81 -72.5759 1191.95 -68.7721 1218 -61.8319C1254.89 -51.9553 1288.65 -37.0571 1328.45 -22.8597C1340.08 -18.6555 1352.76 -14.4012 1366.72 -10.2971C1411.38 2.89936 1478.06 17.7976 1565.51 22.7692" stroke="#CAE0E0" stroke-width="0.876987" stroke-miterlimit="10"/>
<path d="M-144.564 184.23C-83.2996 192.572 24.1645 202.031 143.101 163.159C223.353 136.766 279.815 96.6429 317.721 71.0507C331.543 61.7748 344.38 52.1318 356.888 42.6891C425.824 -9.02915 471.92 -57.4107 507.062 -90.7773C540.251 -122.142 563.8 -140.127 595.624 -132.152C616.15 -126.98 636.709 -112.332 649.926 -97.9345C668.81 -77.3806 670.106 -60.9643 674.339 -45.2152C676.516 -37.1739 678.779 -29.633 684.498 -22.6928C704.367 1.39791 744.519 7.33716 799.27 3.86704C857.702 0.213394 928.711 -16.0195 984.24 -33.4368C989.423 -35.1052 994.606 -36.7735 999.427 -38.4418C1077.57 -64.2175 1092.72 -78.8821 1125.67 -83.1697C1131.72 -83.9303 1137.8 -84.3869 1143.9 -84.5378C1171.23 -85.4053 1194.28 -81.7183 1219.5 -74.9115C1254.45 -65.5188 1287.47 -50.9877 1329.02 -36.1062C1340.62 -31.9353 1353.21 -27.7645 1367.03 -23.5103C1411.25 -10.1636 1477.61 5.96914 1563.99 13.5434" stroke="#CAE0E0" stroke-width="0.876987" stroke-miterlimit="10"/>
<path d="M-145.239 191.504C-87.689 201.131 21.7274 213.309 145.449 173.47C228.38 146.693 286.258 105.068 323.404 79.0255C337.364 69.2491 350.46 59.2391 362.969 49.3293C431.542 -4.59118 477.344 -57.1102 513.28 -93.3463C547.005 -127.23 572.109 -146.95 603.122 -139.342C622.835 -134.487 643.343 -119.172 656.197 -103.89C674.373 -82.2019 674.425 -64.5176 677.362 -48.4683C678.865 -40.1266 680.817 -32.469 686.432 -25.3953C705.299 -1.63824 748.63 1.76516 803.174 -4.45771C862.314 -11.131 932.649 -30.2334 986.917 -47.534C992.1 -49.2023 997.162 -50.8707 1001.98 -52.4055C1081.89 -78.5649 1097.21 -91.628 1127.83 -95.7821C1133.87 -96.5318 1139.95 -96.9773 1146.04 -97.1168C1171.39 -98.0385 1196.72 -94.9387 1221.02 -87.941C1253.95 -78.9487 1286.3 -64.7011 1329.61 -49.219C1341.15 -45.0982 1353.62 -40.8774 1367.22 -36.6064C1430.79 -16.9643 1496.15 -3.21633 1562.42 4.45117" stroke="#CAE0E0" stroke-width="0.876987" stroke-miterlimit="10"/>
<path d="M-146 198.728C-92.147 209.606 19.2389 224.537 147.712 183.713C233.182 156.553 292.598 113.527 329.122 86.9501C491.234 -31.1176 542.547 -162.982 610.74 -146.616C629.642 -142.078 650.098 -126.096 662.572 -109.913C689.213 -75.3785 672.42 -49.1857 688.488 -28.1647C727.88 23.3867 905.074 -34.1874 1004.66 -66.5363C1101.76 -98.0844 1105.35 -108.245 1148.06 -109.913C1222.61 -112.866 1261.36 -83.9537 1367.48 -49.853C1430.57 -29.6751 1495.3 -14.608 1560.99 -4.8081" stroke="#CAE0E0" stroke-width="0.876987" stroke-miterlimit="10"/>
<path d="M-146 203.499C-90.713 215.395 17.2175 229.025 140.041 189.953C224.82 162.909 281.714 119.466 320.916 91.5211C477.516 -19.9734 526.359 -140.727 595.83 -129.95C622.973 -125.746 650.53 -117.32 668.723 -104.408C704.469 -79.0156 691.183 -56.3097 711.915 -36.0061C757.303 8.47159 922.576 -41.4615 1017.39 -71.1411C1109.76 -100.153 1113.49 -108.362 1158.63 -106.693C1233.65 -103.924 1270.64 -78.3316 1370.61 -45.599C1432.98 -25.1879 1497.2 -10.4918 1562.42 -1.70521" stroke="#CAE0E0" stroke-width="0.876987" stroke-miterlimit="10"/>
<path d="M-146 208.471C-53.7982 228.966 42.447 224.784 132.37 196.375C216.458 169.465 270.725 125.572 312.709 96.2756C463.591 -8.92927 510.826 -120.374 580.937 -113.1C616.511 -109.396 649.959 -108.462 674.873 -98.7021C717.617 -82.0188 709.289 -63.5003 735.343 -43.6472C785.119 -5.75944 940.078 -48.5521 1030.14 -75.5624C1117.62 -102.039 1121.51 -108.462 1169.23 -103.29C1244.52 -95.1486 1279.92 -72.3592 1373.73 -41.1447C1435.36 -20.5147 1499.06 -6.18861 1563.78 1.5979" stroke="#CAE0E0" stroke-width="0.876987" stroke-miterlimit="10"/>
<path d="M-146 217.313C-56.483 238.054 37.2417 234.369 124.716 206.669C208.096 179.876 259.754 135.531 304.502 104.901C449.354 5.76876 495.795 -84.588 566.027 -92.3791C609.963 -97.2506 648.819 -95.2486 681.041 -89.1425C729.728 -79.9334 726.895 -66.8036 758.788 -47.4343C811.587 -15.369 957.614 -51.6051 1042.88 -76.1129C1125.6 -99.8866 1129.45 -104.842 1179.8 -96.0327C1255.33 -82.8196 1289.18 -62.5494 1376.88 -32.8364C1437.77 -11.9627 1500.97 2.00057 1565.2 8.77175" stroke="#CAE0E0" stroke-width="0.876987" stroke-miterlimit="10"/>
<path d="M-146 230.777C-59.1747 251.752 32.0281 248.548 117.045 221.534C199.734 194.841 248.766 150.046 296.296 118.098C435.014 24.8546 480.971 -56.8769 551.134 -67.0871C603.259 -74.6613 649.286 -86.2395 687.192 -75.0116C739.352 -59.5629 741.304 -58.4952 782.216 -46.65C831.439 -10.5974 975.133 -50.1368 1055.63 -72.0921C1133.55 -93.2799 1137.38 -96.7833 1190.39 -84.1875C1266.12 -66.1862 1298.42 -48.1015 1380.01 -19.9567C1440.16 1.1538 1502.87 14.7497 1566.6 20.5003" stroke="#CAE0E0" stroke-width="0.876987" stroke-miterlimit="10"/>
<path d="M-146 244.557C-61.8703 265.781 26.8155 263.105 109.408 236.85C191.406 210.29 237.795 164.995 288.124 131.745C420.57 44.2242 466.009 -29.6327 536.155 -41.3444C596.625 -51.4211 646.936 -67.4037 693.377 -60.4134C753.26 -51.4044 758.564 -54.9413 805.679 -45.3984C857.32 -13.3165 992.635 -48.3514 1068.29 -67.6206C1141.41 -86.2225 1145.24 -88.4414 1200.89 -71.8915C1276.91 -49.3357 1307.58 -33.1696 1383.06 -6.62646C1442.49 14.7226 1504.71 27.9523 1567.93 32.6794" stroke="#CAE0E0" stroke-width="0.876987" stroke-miterlimit="10"/>
<path d="M-146 258.604C-64.5853 280.034 21.5597 277.858 101.703 252.348C183.009 225.905 226.721 180.109 279.882 145.575C406.006 63.6433 450.926 -2.73957 521.331 -15.4189C589.973 -27.7812 645.485 -37.9246 699.493 -45.649C766.183 -55.1919 775.755 -51.2379 829.072 -43.9807C883.219 -15.7692 1010.14 -46.3163 1081.11 -62.9663C1149.43 -78.9822 1153.26 -80.0166 1211.55 -59.4127C1287.71 -32.4859 1316.86 -17.9881 1386.19 6.90338C1444.89 28.4826 1506.64 41.3469 1569.33 45.0581" stroke="#CAE0E0" stroke-width="0.876987" stroke-miterlimit="10"/>
<path d="M-146 272.835C-81.6771 290.803 5.17529 296.859 94.0491 268.047C174.716 241.887 215.68 195.391 271.676 159.605C391.355 83.1292 435.809 23.9702 506.421 10.7069C583.408 -3.7408 644.638 -17.8716 705.661 -30.6843C778.743 -46.0496 794.639 -56.777 852.517 -42.3626C912.486 -27.4311 1027.64 -44.031 1093.84 -58.1117C1157.36 -71.5584 1161.23 -71.4583 1222.13 -46.7504C1298.67 -15.6026 1326.07 -2.57297 1389.41 20.6168C1428.78 35.0312 1488.18 53.8833 1570.82 57.6204" stroke="#CAE0E0" stroke-width="0.876987" stroke-miterlimit="10"/>
<path d="M-146 287.317C-80.174 306.269 3.15385 311.057 86.378 283.98C166.354 257.954 204.606 210.857 263.469 173.87C376.617 102.749 420.432 50.6474 491.528 37.0672C576.877 20.7509 643.947 2.51605 711.812 -15.4852C791.477 -36.623 811.363 -52.7057 875.945 -40.5102C937.503 -28.8319 1045.12 -41.6446 1106.6 -53.0227C1165.34 -63.9002 1169.35 -62.8992 1232.72 -33.8369C1309.64 1.41495 1335.24 13.1433 1392.53 34.5647C1431.34 49.0791 1489.85 67.9313 1572.22 70.4338" stroke="#CAE0E0" stroke-width="0.876987" stroke-miterlimit="10"/>
<path d="M-146 301.964C-78.619 321.984 1.13241 325.421 78.7069 300.096C157.992 274.203 193.496 226.489 255.262 188.317C361.828 122.452 405.055 77.3401 476.618 63.6098C570.415 45.6085 643.342 23.1361 717.962 -0.103762C804.348 -26.9972 828.104 -48.0683 899.373 -38.4754C962.607 -29.9669 1062.61 -38.9925 1119.33 -47.7513C1173.2 -56.0929 1177.47 -54.1744 1243.29 -20.741C1320.69 18.5482 1344.4 29.092 1395.66 48.6949C1433.91 63.3262 1491.51 82.245 1573.61 83.4129" stroke="#CAE0E0" stroke-width="0.876987" stroke-miterlimit="10"/>
<path d="M-146 316.829C-77.185 337.8 -0.871715 339.985 71.0359 316.412C149.63 290.636 182.353 242.255 247.056 202.965C346.97 142.272 388.435 96.0088 461.725 90.3532C565.63 82.3285 642.789 43.9736 724.113 15.4785C817.289 -17.154 848.509 -59.5963 922.801 -36.2397C984.86 -16.6702 1080.02 -36.2397 1132.08 -42.2791C1181.11 -48.0348 1185.64 -45.3154 1253.88 -7.46101C1331.82 35.7988 1353.52 45.3083 1398.79 63.0259C1436.47 77.7907 1493.19 96.7262 1575.01 96.6094" stroke="#CAE0E0" stroke-width="0.876987" stroke-miterlimit="10"/>
<path d="M-146 332.178C-75.6819 354.166 -2.89315 355.001 63.3821 333.312C141.268 307.653 171.174 258.538 238.849 218.197C332.146 162.592 373.041 124.487 446.814 117.681C559.116 107.287 642.306 65.4118 730.281 31.6448C830.316 -6.7268 863.955 -51.9552 946.246 -33.4201C1011.52 -18.7054 1097.56 -32.7861 1144.81 -36.2229C1189.02 -39.4428 1193.95 -35.9393 1264.46 6.41963C1343.02 53.6 1362.64 62.1585 1401.93 77.9409C1439.03 92.8558 1494.87 111.775 1576.43 110.373" stroke="#CAE0E0" stroke-width="0.876987" stroke-miterlimit="10"/>
<path d="M-146 348.494C-74.1961 371.5 -4.93185 371.05 55.711 350.996C132.905 325.454 159.944 275.538 230.642 234.213C317.132 183.646 357.63 153.75 431.922 145.792C552.654 132.862 641.857 87.6503 736.432 48.6114C843.412 4.45067 879.832 -42.6129 969.674 -29.8001C1037.99 -20.0571 1115.01 -28.6323 1157.56 -29.3831C1196.92 -30.0838 1202.29 -25.8128 1275.05 21.0839C1354.26 72.1515 1371.8 79.8592 1405.06 93.6563C1441.57 108.771 1496.63 127.623 1577.83 124.937" stroke="#CAE0E0" stroke-width="0.876987" stroke-miterlimit="10"/>
<path d="M-146 365.094C-72.6929 389.118 -6.95329 387.35 48.04 369.065C124.543 343.623 148.662 292.805 222.436 250.613C302.17 205.001 342.167 183.363 417.011 174.287C546.106 158.638 641.442 110.257 742.582 65.9457C856.612 16.0126 896.107 -32.2021 993.101 -25.8124C1064.28 -21.1244 1132.48 -24.1441 1170.3 -22.1588C1204.78 -20.3737 1210.69 -15.3687 1285.62 36.1327C1365.6 91.0708 1380.78 98.0778 1408.19 109.756C1444.07 125.121 1498.2 143.873 1579.23 139.886" stroke="#CAE0E0" stroke-width="0.876987" stroke-miterlimit="10"/>
<path d="M-146 383.162C-71.1898 408.187 -9.02654 405.017 40.3689 388.584C116.129 363.092 137.294 311.39 214.229 268.464C287.173 227.757 326.686 214.41 402.118 204.233C539.507 185.698 641.062 134.33 748.664 84.7309C869.604 29.0253 913.125 -12.7664 1016.46 -20.3739C1090.1 -25.7793 1149.86 -18.2051 1182.98 -13.4837C1212.64 -9.24618 1219.09 -3.47375 1296.14 52.6155C1376.9 111.441 1389.75 117.68 1411.24 127.273C1446.45 143.006 1499.81 161.541 1580.56 156.269" stroke="#CAE0E0" stroke-width="0.876987" stroke-miterlimit="10"/>
<path d="M-146 401.047C-69.704 427.089 -11.048 422.618 32.7151 407.937C107.767 382.562 125.822 329.626 206.022 286.149C272.159 250.296 311.171 245.275 387.208 234.013C532.872 212.442 640.699 158.221 754.901 103.367C882.908 41.8552 930.524 -3.40654 1039.97 -15.0849C1115.99 -23.1596 1167.43 -12.5323 1195.78 -4.97476C1220.64 1.69856 1227.67 8.20503 1306.79 68.9489C1388.4 131.611 1398.8 137.234 1414.46 144.658C1448.87 160.974 1501.55 179.042 1582.05 172.486" stroke="#CAE0E0" stroke-width="0.876987" stroke-miterlimit="10"/>
<path d="M-146 418.947C-68.2527 445.991 -12.9657 440.235 25.044 427.289C99.3359 402.031 114.229 347.593 197.816 303.833C257.146 272.768 295.639 276.138 372.315 263.793C526.169 239.018 640.353 182.045 761.052 121.985C896.125 54.6843 947.974 5.88563 1063.4 -9.81335C1142.1 -20.5073 1184.98 -6.94383 1208.53 3.53329C1228.62 12.4755 1236.17 19.8662 1317.38 85.2815C1399.88 151.798 1407.74 156.853 1417.58 162.025C1450.88 179.525 1503.21 196.559 1583.45 188.718" stroke="#CAE0E0" stroke-width="0.876987" stroke-miterlimit="10"/>
</g>
</g>
<defs>
<linearGradient id="paint0_linear_54_41850" x1="5.60757e-06" y1="195" x2="1477.86" y2="280.107" gradientUnits="userSpaceOnUse">
<stop stop-color="#08252B"/>
<stop offset="0.46875" stop-color="#355D66"/>
<stop offset="1" stop-color="#19414B"/>
</linearGradient>
<linearGradient id="paint1_linear_54_41850" x1="-127.5" y1="682" x2="1363.67" y2="-63.2477" gradientUnits="userSpaceOnUse">
<stop stop-color="#E3ECE0"/>
<stop offset="0.265625" stop-color="#F9EFE7" stop-opacity="0.49"/>
<stop offset="0.691323" stop-color="#E2EAE1"/>
<stop offset="1" stop-color="#F8EEE6"/>
</linearGradient>
</defs>
</svg>
